<?xml version="1.0" standalone="no"?>
<!DOCTYPE svg PUBLIC "-//W3C//DTD SVG 1.1//EN" "http://www.w3.org/Graphics/SVG/1.1/DTD/svg11.dtd" >
<svg xmlns="http://www.w3.org/2000/svg" xmlns:xlink="http://www.w3.org/1999/xlink" version="1.1">
<metadata>
Created by FontForge 20161013 at Fri Nov 18 00:07:12 2011
 By ,,,
Copyright (c) 2011 by vernon adams. All rights reserved.
</metadata>
<defs>
<font id="OswaldStencil-Bold" horiz-adv-x="1198" >
  <font-face 
    font-family="Oswald Stencil"
    font-weight="700"
    font-stretch="normal"
    units-per-em="2048"
    panose-1="2 0 5 6 0 0 0 2 0 4"
    ascent="1638"
    descent="-410"
    x-height="1782"
    cap-height="1782"
    bbox="-210 -613 2565 2363"
    underline-thickness="90"
    underline-position="-272"
    unicode-range="U+000D-F6C3"
  />
<missing-glyph horiz-adv-x="757" 
d="M528 106v1156h-296v-1156h296zM105 1368h551v-1370h-551v1370z" />
    <glyph glyph-name=".notdef" horiz-adv-x="757" 
d="M528 106v1156h-296v-1156h296zM105 1368h551v-1370h-551v1370z" />
    <glyph glyph-name=".null" horiz-adv-x="360" 
 />
    <glyph glyph-name=".null" horiz-adv-x="360" 
 />
    <glyph glyph-name="uni000D" unicode="&#xd;" horiz-adv-x="115" 
 />
    <glyph glyph-name="space" unicode=" " horiz-adv-x="290" 
 />
    <glyph glyph-name="exclam" unicode="!" horiz-adv-x="504" 
d="M100 1781h310l-109 -1336h-102zM105 286h292v-286h-292v286z" />
    <glyph glyph-name="quotedbl" unicode="&#x22;" horiz-adv-x="744" 
d="M54 1782h266q-1 -7 -2 -32t-1.5 -61.5t-1.5 -82t-1.5 -92t-1 -91.5t-1.5 -82t-1.5 -62t-1.5 -31h-173zM431 1782h259q-1 -7 -5.5 -32t-10.5 -61.5t-14 -82t-15.5 -92t-15.5 -91.5t-14 -82t-10.5 -62t-5.5 -31h-168v534z" />
    <glyph glyph-name="numbersign" unicode="#" horiz-adv-x="1121" 
d="M233 626h-145v226h180l28 142h-197v223h233l98 566h195l-99 -566h149l99 566h194l-99 -566h140v-223h-176l-27 -142h192v-226h-229l-110 -626h-193l110 626h-151l-110 -626h-192zM612 852l27 142h-150l-27 -142h150z" />
    <glyph glyph-name="dollar" unicode="$" horiz-adv-x="1101" 
d="M510 1890h97v-186q86 -5 160 -37t128.5 -85t87 -125t35.5 -157v-6.5v-13.5t0.5 -13.5l0.5 -6.5l-318 -48q1 11 1.5 26.5t0.5 32.5q-2 34 -10.5 68.5t-26 62t-45 44.5t-68.5 17q-11 0 -22 -1t-21 -3v431zM607 -108h-97v164q-110 10 -188.5 52t-130 106.5t-77 148.5
t-28.5 178l313 62q0 -26 2 -59t8 -66.5t17.5 -65.5t31 -57.5t48 -40.5t68.5 -15q18 0 33 3v-410zM657 318q32 18 44.5 51.5t12.5 78.5t-18 82.5t-47.5 71.5t-68.5 65.5t-81 64.5l-153 120q-50 39 -96.5 82t-83 93.5t-58.5 111.5t-22 136q0 88 27 160t76 126t118 88t153 48
v-257q-32 -20 -47.5 -53t-15.5 -73q0 -38 11 -70t31 -60t47.5 -53t59.5 -50l159 -122q72 -55 131 -106.5t101 -110t65 -127.5t23 -159q0 -82 -28 -150t-77.5 -119t-117 -83.5t-145.5 -43.5v258z" />
    <glyph glyph-name="percent" unicode="%" horiz-adv-x="1866" 
d="M1132 1810h167l-572 -1810h-166zM1459 981q90 -5 152 -39t100.5 -93.5t55.5 -141.5t17 -182v-60q0 -98 -17 -182t-55 -146t-100 -99.5t-153 -42.5l-1 186q30 7 48 32t27.5 62.5t12.5 86t3 104.5v55q0 55 -2.5 102.5t-11.5 83t-27 58t-49 29.5v187zM1408 -5
q-91 5 -153 42.5t-100 99.5t-54.5 146t-16.5 182v60q0 99 16.5 181t55 141.5t100.5 94t152 39.5l1 -186q-31 -6 -49.5 -29t-28 -58.5t-12.5 -83t-3 -102.5v-56q0 -56 3.5 -104.5t13 -86t27.5 -62.5t48 -32v-186zM459 1783q90 -5 152 -39t100.5 -93.5t55.5 -141.5t17 -182
v-60q0 -98 -17 -182t-55 -146t-100 -99.5t-153 -42.5l-1 186q30 7 48 32t27.5 62.5t12.5 86t3 104.5v55q0 55 -2.5 102.5t-11.5 83t-27 58t-49 29.5v187zM408 797q-91 5 -153 42.5t-100 99.5t-54.5 146t-16.5 182v60q0 99 16.5 181t55 141.5t100.5 94t152 39.5l1 -186
q-31 -6 -49.5 -29t-28 -58.5t-12.5 -83t-3 -102.5v-56q0 -56 3.5 -104.5t13 -86t27.5 -62.5t48 -32v-186z" />
    <glyph glyph-name="ampersand" unicode="&#x26;" horiz-adv-x="1177" 
d="M476 1102q31 39 60 78t51 80t35 83.5t13 88.5q0 25 -5 51t-16.5 48t-30 38t-45.5 21v222q78 -6 141.5 -34.5t108.5 -76t69.5 -113t24.5 -144.5q0 -83 -24.5 -157t-65 -144.5t-93.5 -139t-110 -140.5l-169 -211q-20 -26 -37 -58t-29 -67.5t-19 -72.5t-7 -73q0 -32 5.5 -61
t18 -53t32 -42.5t46.5 -28.5v-225q-90 3 -158 35t-114 85.5t-69 125t-23 152.5q0 74 19 142t52 132.5t76.5 126.5t92.5 122zM797 124q-60 -73 -142.5 -111t-176.5 -42v223q48 4 87 33t71 69l348 429l168 -167l-199 -244l145 -188l-181 -161zM282 944q-27 56 -53 119t-47 126
t-34 122.5t-13 108.5q0 82 23.5 153.5t68.5 124.5t111 83.5t151 32.5v-225q-27 -6 -43.5 -25.5t-26 -44t-12.5 -52t-3 -49.5q0 -69 11 -131.5t38 -131.5zM608 341q-21 33 -44 70.5t-45.5 73.5t-41.5 68t-31 53l172 210l163 -262z" />
    <glyph glyph-name="quotesingle" unicode="'" horiz-adv-x="360" 
d="M47 1780h274q-1 -6 -4.5 -31t-8 -62t-10 -82t-11 -91.5t-11 -91.5t-10 -82t-8 -62t-4.5 -31h-141z" />
    <glyph glyph-name="parenleft" unicode="(" horiz-adv-x="660" 
d="M616 -64q-114 0 -193.5 43t-131.5 114.5t-81 165t-43 195t-17 203.5t-3 191q0 63 -0.5 140.5t2.5 161.5t12.5 171t29.5 168t53 152.5t84 124.5t122 83.5t166 30.5v-202q-48 0 -82.5 -27t-58.5 -72.5t-38.5 -105.5t-22 -126t-10 -134t-2.5 -129q0 -51 1 -93.5t1 -73.5
q0 -33 -1 -81t-1 -105q0 -62 2.5 -130.5t10.5 -134.5t22 -125.5t38 -104.5t58.5 -71.5t82.5 -26.5v-202z" />
    <glyph glyph-name="parenright" unicode=")" horiz-adv-x="662" 
d="M89 138q48 0 82.5 26.5t58.5 71.5t38 104.5t22 125.5t10.5 134t2.5 131q0 57 -1 105t-1 81q0 30 0.5 71.5t0.5 90.5q0 61 -2.5 129.5t-10 135t-21.5 127t-38 106.5t-58.5 73.5t-82.5 27.5v202q115 0 194.5 -43.5t131.5 -116t81 -167.5t43 -197t17 -205t3 -192
q0 -63 0.5 -140.5t-3 -161t-13.5 -169.5t-30 -166.5t-53.5 -150.5t-84.5 -122.5t-121.5 -82.5t-164.5 -30v202z" />
    <glyph glyph-name="asterisk" unicode="*" horiz-adv-x="879" 
d="M471 1104l-144 -234l-171 102l164 234l-249 96l66 173l229 -119l-25 273h250l-25 -273l229 119l66 -173l-249 -96l164 -234l-171 -102z" />
    <glyph glyph-name="plus" unicode="+" horiz-adv-x="737" 
d="M57 755h176v176h186v-176h179v-148h-179v-176h-186v176h-176v148z" />
    <glyph glyph-name="comma" unicode="," horiz-adv-x="451" 
d="M117 -105q29 3 46 8.5t26 17.5t12 30.5t3 47.5h-114v287h292v-146q0 -85 -5 -156.5t-24 -123t-56.5 -80.5t-103.5 -29h-18.5t-19.5 2z" />
    <glyph glyph-name="hyphen" unicode="-" horiz-adv-x="452" 
d="M29 651h394v-199h-394v199z" />
    <glyph glyph-name="period" unicode="." horiz-adv-x="494" 
d="M103 286h293v-286h-293v286z" />
    <glyph glyph-name="slash" unicode="/" horiz-adv-x="841" 
d="M636 1810h172l-573 -1810h-171z" />
    <glyph glyph-name="zero" unicode="0" horiz-adv-x="1125" 
d="M542 -33q-119 3 -203.5 49t-138.5 121.5t-79.5 174.5t-25.5 210v736q0 113 24.5 212.5t78.5 175t139 120.5t205 48v-266q-47 -6 -75 -35t-42.5 -70.5t-18.5 -88.5t-4 -88v-752q0 -41 5 -88t20 -88t42.5 -70.5t72.5 -35.5v-265zM592 234q42 8 68.5 38t41 70.5t19.5 86
t5 85.5v752q0 40 -4.5 86.5t-18.5 87t-40.5 70t-70.5 37.5v266q118 -5 201 -50.5t136 -120.5t77.5 -173.5t24.5 -210.5v-736q0 -109 -25.5 -207t-79.5 -173t-137 -121.5t-197 -52.5v266z" />
    <glyph glyph-name="one" unicode="1" horiz-adv-x="644" 
d="M178 1353l-176 -17v238q46 20 90.5 42.5t84.5 54.5zM226 1694q23 17 39 38t33 51h230v-1783h-301z" />
    <glyph glyph-name="two" unicode="2" horiz-adv-x="1045" 
d="M226 0h-179v219l468 685q30 44 60.5 94.5t54.5 104.5t39 109.5t15 111.5q0 37 -7.5 74.5t-23 69t-40.5 54t-60 28.5v265q106 -4 187 -40.5t136 -100t83 -152.5t28 -198q0 -73 -17 -144t-45.5 -139t-66.5 -132t-80 -123q-29 -45 -70 -106t-84.5 -125t-84 -123t-68.5 -100z
M504 1550q-36 -6 -60 -28t-39.5 -54t-23.5 -70.5t-11 -78t-3.5 -77.5t-0.5 -67h-302v93q0 116 24 214.5t76.5 171t136.5 115t203 46.5v-265zM507 296h475v-296h-693z" />
    <glyph glyph-name="three" unicode="3" horiz-adv-x="1065" 
d="M506 1550q-45 -8 -71 -40.5t-39.5 -77.5t-17.5 -96.5t-5 -97.5h-303v95q0 104 27.5 191t82 150t136 99.5t190.5 41.5v-265zM506 -33q-126 4 -209 46.5t-132.5 113t-71 164.5t-23.5 202v53h303q0 -49 4 -101t17.5 -96t39.5 -75.5t72 -39.5v-267zM556 233q45 5 71.5 30.5
t40.5 64.5t18 87.5t4 98.5q0 65 -14.5 118.5t-44.5 91t-77 58t-113 20.5v301q60 0 106.5 9.5t78 35t48 70t16.5 115.5q0 43 -6 81t-21.5 67t-41.5 47t-65 23v265q109 -3 191 -40t137.5 -101t83.5 -151t28 -192q0 -60 -12.5 -117.5t-37.5 -108t-61 -90.5t-83 -66
q97 -65 145.5 -177t48.5 -258q0 -115 -23 -213.5t-75.5 -171.5t-136.5 -116t-205 -47v266z" />
    <glyph glyph-name="four" unicode="4" horiz-adv-x="1056" 
d="M773 1782h87v-1782h-302v1176zM508 453h-448v243l430 1086h230l-386 -1086h174v-243zM910 696h118v-243h-118v243z" />
    <glyph glyph-name="five" unicode="5" horiz-adv-x="1093" 
d="M473 1782h485v-292h-485v292zM473 1123q35 18 72 28t78 10q79 0 139.5 -20.5t105 -58t75 -88.5t49 -111.5t26.5 -129t8 -139.5q0 -121 -18.5 -235.5t-68 -205t-135.5 -146.5t-221 -60v259q52 9 81 49.5t43.5 97t17.5 121.5t3 123q0 53 -5.5 105.5t-22.5 94.5t-47.5 68
t-81.5 26q-27 0 -52 -11.5t-46 -30.5v254zM423 1782v-1011h-277v1011h277zM533 -32q-123 6 -203.5 53t-128.5 123.5t-67.5 178t-19.5 217.5l303 2q0 -69 4 -125.5t16 -98t35 -65.5t61 -29v-256z" />
    <glyph glyph-name="six" unicode="6" horiz-adv-x="1090" 
d="M401 523q0 -50 5.5 -98.5t20.5 -88.5t41 -67.5t66 -34.5v-263q-118 5 -201 54t-136 127.5t-77.5 178t-24.5 206.5v666q0 72 8.5 144.5t29 139t53.5 125t82 102t114.5 70t151.5 30.5v-265q-42 -7 -68.5 -41.5t-40.5 -84.5t-19 -110t-5 -117v-673zM451 1071
q38 16 79.5 23.5t84.5 7.5q80 0 142 -19.5t107.5 -55.5t76.5 -85t50 -109t27 -127.5t8 -139.5q0 -111 -24 -215.5t-76.5 -187t-136.5 -134t-205 -57.5v262q47 7 74 40.5t41 80.5t18 101t4 102q0 53 -5.5 105t-22.5 93t-48.5 66.5t-84.5 25.5q-29 0 -57.5 -8.5t-51.5 -22.5
v254zM584 1814q104 -5 181 -45.5t128 -107.5t76 -156t25 -189v-31h-295q0 46 -5 90t-18 80t-35 60.5t-57 32.5v266z" />
    <glyph glyph-name="seven" unicode="7" horiz-adv-x="805" 
d="M427 1516h-396v266h452zM534 1782h248v-165l-355 -1617h-273z" />
    <glyph glyph-name="eight" unicode="8" horiz-adv-x="1094" 
d="M530 -30q-123 4 -207 45.5t-135.5 113t-74 169.5t-22.5 215q0 146 38.5 253t133.5 177q-79 66 -117 167.5t-38 221.5q0 104 25.5 191t77.5 151t131.5 101t187.5 41v-243q-35 -6 -58 -27t-36.5 -51t-18.5 -66.5t-5 -72.5q0 -44 3.5 -93t16 -92t36 -75t62.5 -41v-244
q-45 -9 -73 -41.5t-43 -77.5t-20.5 -96.5t-5.5 -98.5q0 -50 4.5 -98t19.5 -86.5t43 -64.5t75 -31v-247zM580 217q47 6 75 31.5t43 64.5t20 86.5t5 97.5q0 47 -5 98.5t-20.5 96.5t-43.5 77.5t-74 41.5v244q40 9 63.5 40.5t36 75t16 92.5t3.5 93q0 36 -5 72t-18.5 66.5
t-36.5 51.5t-59 27v243q109 -4 188 -41t131 -101t77 -151t25 -191q0 -120 -36.5 -221.5t-117.5 -167.5q95 -70 134.5 -176t39.5 -254q0 -117 -23 -214.5t-74.5 -169.5t-136 -113.5t-207.5 -45.5v247z" />
    <glyph glyph-name="nine" unicode="9" horiz-adv-x="1108" 
d="M713 1259q0 49 -5.5 97.5t-20.5 88.5t-40 67.5t-64 35.5v266q116 -6 198.5 -58.5t135 -135.5t77 -188t24.5 -216v-606q0 -76 -8.5 -151.5t-28.5 -145t-52.5 -130t-81 -106t-114 -73.5t-150.5 -32v262q31 6 52.5 28t36 54t23 71t12.5 80t5 81.5t1 74.5v636zM663 709
q-74 -27 -159 -27q-122 0 -202.5 43t-128 116.5t-67 170.5t-19.5 205q0 111 24 216.5t77.5 188.5t138 135.5t206.5 57.5v-265q-47 -6 -74.5 -38.5t-42 -78.5t-19 -100t-4.5 -103q0 -52 5 -105t21.5 -96t48 -70t84.5 -27q29 0 58 8.5t53 22.5v-254zM533 -29q-108 4 -186.5 44
t-130 106.5t-77 155.5t-28.5 191v29h296q1 -47 5.5 -91.5t18 -80.5t38 -60.5t64.5 -30.5v-263z" />
    <glyph glyph-name="colon" unicode=":" horiz-adv-x="497" 
d="M105 1164h290v-286h-290v286zM105 463h290v-284h-290v284z" />
    <glyph glyph-name="semicolon" unicode=";" horiz-adv-x="490" 
d="M95 1164h291v-286h-291v286zM121 67q29 3 46 9t26 18t12 30.5t3 47.5h-114v287h292v-137q0 -87 -4.5 -160.5t-23.5 -126t-57 -82t-104 -29.5h-18.5t-20.5 2z" />
    <glyph glyph-name="less" unicode="&#x3c;" horiz-adv-x="834" 
d="M74 779l653 456v-264l-452 -321q60 -44 115.5 -83.5t110.5 -78.5t110.5 -79t115.5 -83v-264q-175 121 -315 219q-60 42 -118 82.5t-105 73.5t-78 54.5t-37 26.5v261z" />
    <glyph glyph-name="equal" unicode="=" horiz-adv-x="759" 
d="M83 780h588v-199h-588v199zM83 455h588v-198h-588v198z" />
    <glyph glyph-name="greater" unicode="&#x3e;" horiz-adv-x="834" 
d="M112 326l451 324q-11 8 -46 32.5t-81 57.5t-98.5 70.5t-98.5 70.5t-81 57.5t-46 32.5v265q174 -122 314 -220q60 -42 118 -82.5t105 -73.5t78 -55t37 -26v-261l-652 -456v264z" />
    <glyph glyph-name="question" unicode="?" horiz-adv-x="950" 
d="M449 1558q-59 -11 -91.5 -63t-32.5 -127q0 -12 1 -29t2.5 -35t4.5 -35t6 -29l-273 -46q-6 21 -10 47t-7 52.5t-4.5 51.5t-1.5 44q0 91 26 167.5t77 133t127 89t176 36.5v-257zM499 1815q96 -4 174 -34.5t133 -87t84.5 -138t29.5 -187.5q0 -79 -27 -150t-67 -137t-87 -127
t-87 -119.5t-67 -115.5t-27 -114v-71h-290v97q0 75 26.5 140t66.5 125t87 117t87 115.5t66.5 121t26.5 133.5q0 82 -35.5 124.5t-93.5 50.5v257zM263 292h300v-292h-300v292z" />
    <glyph glyph-name="at" unicode="@" horiz-adv-x="1662" 
d="M1253 547q25 11 41 40t25 67t12.5 79.5t3.5 77.5q0 138 -22.5 248t-73.5 188.5t-133 124t-201 55.5v201q169 -10 297.5 -71t215 -166.5t130.5 -251.5t44 -326q0 -95 -21 -180.5t-63 -151t-105.5 -106t-149.5 -45.5v217zM1203 329q-24 0 -52.5 2t-58.5 9t-59.5 19.5
t-54.5 34.5l-73 182v665h255v-583v-22q0 -14 1 -28.5t5.5 -27.5t13 -22.5t23.5 -13.5v-215zM885 -91q-210 6 -362 64.5t-250.5 170.5t-145 278t-46.5 386q0 186 53.5 338t153 259.5t243 166t323.5 58.5v-200q-119 0 -214.5 -41.5t-163 -121t-103.5 -195.5t-36 -265
q0 -164 30 -291t96 -215t170 -136t252 -55v-201zM855 1044q-4 1 -12 1q-31 0 -52.5 -14t-35.5 -37t-21.5 -52.5t-11.5 -62t-4.5 -65t-0.5 -60.5q0 -38 4 -75.5t15 -68t32 -49.5t55 -19q14 0 31 5l81 -192q-37 -15 -77.5 -20.5t-77.5 -5.5q-56 0 -101 18t-80.5 48t-61.5 71
t-43 87t-25 94.5t-8 95.5q0 55 6.5 114.5t21 115.5t37.5 106t56.5 88t78 60t101.5 22q23 0 47.5 -6t45.5 -17v-182z" />
    <glyph glyph-name="A" unicode="A" horiz-adv-x="1100" 
d="M455 1782h242l378 -1782h-305l-198 1135zM524 1114l-86 -530h182l27 -185h-232l-77 -399h-313l378 1782z" />
    <glyph glyph-name="B" unicode="B" horiz-adv-x="1115" 
d="M482 1067h51q53 0 87 21t53.5 57t27 84t7.5 101q0 78 -14.5 124.5t-42 71.5t-67.5 33t-92 8h-10v215h4q115 0 210.5 -22.5t163 -75.5t105 -141t37.5 -219q0 -136 -63 -221t-190 -130q82 -22 139 -65.5t92.5 -102t51 -129.5t15.5 -149q0 -129 -28.5 -227t-89 -165
t-154.5 -101t-225 -34h-68v226h38q71 0 114 20.5t66.5 61t31 100.5t7.5 138q0 66 -10 123t-34.5 98.5t-67 65t-106.5 23.5h-39v211zM116 0v1782h316v-1782h-316z" />
    <glyph glyph-name="C" unicode="C" horiz-adv-x="1152" 
d="M620 214q48 7 77 37t44.5 75t21 99.5t5.5 109.5v170h309v-137q-2 -116 -23.5 -222.5t-73.5 -189t-139.5 -133.5t-220.5 -56v247zM620 1815q127 -5 214.5 -50.5t141.5 -123t77.5 -182.5t23.5 -227v-136h-310v152q0 53 -5 107t-20.5 99t-44.5 75.5t-77 37.5v248zM570 1568
q-51 -6 -82.5 -33.5t-49.5 -68.5t-24 -89.5t-6 -96.5v-779q0 -48 6 -96.5t24 -89.5t49.5 -68.5t82.5 -33.5v-246q-138 4 -229.5 54.5t-147 133t-78.5 191.5t-23 232v624q0 125 23 235t78.5 192.5t147.5 131.5t229 54v-247z" />
    <glyph glyph-name="D" unicode="D" horiz-adv-x="1148" 
d="M482 225h9q73 0 121 9.5t76 33.5t39.5 65t11.5 104v925q0 53 -14 90t-44 60t-76 33.5t-109 10.5h-14v226h12q168 0 277 -35t172.5 -105.5t88 -177t24.5 -249.5v-615q0 -97 -8.5 -179t-31.5 -149t-63 -117.5t-102.5 -85t-151 -52t-208.5 -17.5h-9v225zM116 0v1782h316
v-1782h-316z" />
    <glyph glyph-name="E" unicode="E" horiz-adv-x="871" 
d="M116 0v1782h316v-1782h-316zM482 221h351v-221h-351v221zM482 1782h351v-221h-351v221zM482 1035h235v-225h-235v225z" />
    <glyph glyph-name="F" unicode="F" horiz-adv-x="842" 
d="M116 0v1782h316v-1782h-316zM482 1782h351v-221h-351v221zM482 1035h235v-225h-235v225z" />
    <glyph glyph-name="G" unicode="G" horiz-adv-x="1211" 
d="M628 1815q133 -4 223 -50.5t145 -126t79 -186.5t24 -231v-85h-305v100q0 55 -4.5 111.5t-21 103.5t-50 79t-90.5 38v247zM623 213q54 4 87.5 32.5t52 69.5t25 89t6.5 93v177h-129v229h445v-903h-209l-46 135q-35 -61 -97 -102.5t-135 -57.5v238zM574 -32q-7 -1 -13 -1
h-13q-89 0 -157.5 25t-119 68.5t-85 100.5t-55.5 121.5t-30 132t-9 130.5v655q0 125 23.5 234.5t80 192.5t149.5 132.5t233 54.5v-247q-52 -6 -85 -34t-52 -67.5t-26 -87t-7 -93.5v-795q0 -45 6.5 -91t24.5 -85t50.5 -66t84.5 -34v-246z" />
    <glyph glyph-name="H" unicode="H" horiz-adv-x="1187" 
d="M1072 1782v-1782h-319v810h-271v202h271v770h319zM432 0h-316v1782h317z" />
    <glyph glyph-name="I" unicode="I" horiz-adv-x="548" 
d="M115 1782h317v-1782h-317v1782z" />
    <glyph glyph-name="J" unicode="J" horiz-adv-x="612" 
d="M3 198q55 0 89.5 7.5t54 32t27 70t7.5 121.5v1353h316v-1355q0 -114 -14 -199t-57 -141.5t-121 -84.5t-206 -28h-96v224z" />
    <glyph glyph-name="K" unicode="K" horiz-adv-x="1147" 
d="M482 1094l272 688h351l-364 -801l403 -981h-329l-333 857v237zM116 0v1782h316v-1782h-316z" />
    <glyph glyph-name="L" unicode="L" horiz-adv-x="837" 
d="M116 0v1782h316v-1782h-316zM482 221h336v-221h-336v221z" />
    <glyph glyph-name="M" unicode="M" horiz-adv-x="1518" 
d="M870 0h-215l-244 871v910h18zM784 562l302 1219h21v-910l-220 -730zM116 0v1782h245v-1782h-245zM1157 0v1782h245v-1782h-245z" />
    <glyph glyph-name="N" unicode="N" horiz-adv-x="1183" 
d="M345 1783l43 -104v-1679h-272v1783h229zM804 105v1678h263v-1783h-221zM438 1558l316 -690v-637l-316 718v609z" />
    <glyph glyph-name="O" unicode="O" 
d="M573 1568q-51 -6 -83 -33.5t-50.5 -68.5t-25 -89.5t-6.5 -96.5v-780q0 -48 6.5 -96.5t24.5 -89t50.5 -68t83.5 -33.5v-246q-137 4 -229 53t-148 130.5t-80 189.5t-24 231v631q0 125 23.5 235t79.5 192.5t148.5 131.5t229.5 54v-247zM623 1815q137 -5 229.5 -54
t149 -131.5t80.5 -192t24 -235.5v-624q0 -123 -24 -232t-80 -191.5t-148.5 -133t-230.5 -54.5v246q52 6 84.5 33t50.5 67.5t24.5 89.5t6.5 97v780q0 48 -6.5 97t-25 89.5t-51 68t-83.5 33.5v247z" />
    <glyph glyph-name="P" unicode="P" horiz-adv-x="1028" 
d="M432 0h-316v1782h316v-1782zM482 1782h66q120 0 203.5 -35.5t136 -101t76 -157.5t23.5 -205q0 -141 -31.5 -238.5t-94 -158.5t-154.5 -89t-213 -28h-12v227h26q61 0 96 17.5t53 53.5t23 91t5 130q0 61 -6.5 110.5t-32 84t-76 53t-138.5 18.5h50v228z" />
    <glyph glyph-name="Q" unicode="Q" horiz-adv-x="1205" 
d="M575 -35q-129 4 -221 51.5t-150 128t-85 189.5t-27 237v631q0 126 24 235.5t80 192t149 131.5t230 54v-248q-51 -6 -83 -34t-51 -68.5t-26 -88.5t-7 -96v-779q0 -48 7 -96.5t26 -88.5t51 -68t83 -34v-249zM625 213q54 4 87.5 31t52 67.5t24.5 90t6 99.5v779q0 49 -7 98
t-25.5 89.5t-52 68t-85.5 32.5v247q139 -3 232 -52t149.5 -131.5t80.5 -193t24 -236.5v-624q0 -76 -10.5 -151t-35 -144t-65 -129.5t-100.5 -107.5q14 -24 40 -39t54 -23t53 -11.5t37 -4.5v-197q-81 1 -141.5 20.5t-105.5 48.5t-77 64t-55 69q-20 -3 -40 -5t-40 -3v248z" />
    <glyph glyph-name="R" unicode="R" horiz-adv-x="1119" 
d="M482 1031h99q51 0 82 28.5t48 69.5t22.5 86t5.5 78q0 34 -5 78t-20.5 83.5t-44 66.5t-74.5 27h-113v234h44q126 0 224.5 -27.5t166 -84.5t102.5 -145t35 -210q0 -61 -5 -124t-26.5 -121.5t-66.5 -109t-126 -86.5l253 -874h-323l-207 831h-71v200zM116 0v1782h316v-1782
h-316z" />
    <glyph glyph-name="S" unicode="S" horiz-adv-x="1054" 
d="M557 1816q92 -2 170.5 -36.5t136.5 -93.5t92.5 -139.5t38.5 -173.5v-37l-321 -50q0 14 1 29t1 31q-2 34 -9 70t-20.5 67t-35.5 54t-54 32v247zM520 -34q-114 6 -197 52t-139 119t-85.5 165t-36.5 191l317 64q2 -56 8.5 -112.5t22 -104t42 -81.5t68.5 -45v-248zM401 824
l-72 68q-50 44 -97.5 91t-85 103t-60 124.5t-22.5 154.5q0 100 32 180.5t90.5 138.5t140 91.5t180.5 39.5v-243q-33 -3 -58 -18.5t-41.5 -38.5t-24.5 -53t-8 -63q0 -45 11.5 -84t32 -73t48 -64.5t59.5 -58.5q14 -13 38 -35.5t50 -46.5zM649 1002l37 -33q65 -60 122.5 -122.5
t100 -132.5t67.5 -151t25 -178q0 -94 -34 -170t-92.5 -130.5t-137 -85.5t-167.5 -34v244q34 2 57.5 15t38.5 35t21.5 50.5t6.5 62.5q0 56 -18.5 108.5t-49 100.5t-69.5 91.5t-80 81.5l-40 37z" />
    <glyph glyph-name="T" unicode="T" horiz-adv-x="884" 
d="M602 1494v-1494h-317v1494h317zM5 1782h874v-238h-874v238z" />
    <glyph glyph-name="U" unicode="U" horiz-adv-x="1223" 
d="M639 212q58 3 90.5 29t48.5 75.5t19.5 124t3.5 174.5v1167h316v-1168q0 -84 -6.5 -164t-25.5 -151.5t-52 -131t-86 -103.5t-129 -69.5t-179 -27.5v245zM589 -33q-103 3 -179 28.5t-129.5 69.5t-87.5 104t-53.5 131t-26.5 150.5t-7 163.5v1168h317v-1167q0 -98 5.5 -171
t23 -122.5t50 -76t87.5 -32.5v-246z" />
    <glyph glyph-name="V" unicode="V" horiz-adv-x="1053" 
d="M368 0l-341 1782h304l167 -1035zM725 1782h301l-356 -1782h-251z" />
    <glyph glyph-name="W" unicode="W" horiz-adv-x="1475" 
d="M1056 850l114 932h273l-258 -1782zM551 0h-259l-260 1782h273l113 -931zM622 1782h240l141 -932l133 -850h-236zM700 964l-114 -867l-117 755l122 797z" />
    <glyph glyph-name="X" unicode="X" horiz-adv-x="1078" 
d="M469 470l-167 -470h-297l308 864zM4 1782h332l706 -1782h-334zM564 1341l140 441h303l-283 -842z" />
    <glyph glyph-name="Y" unicode="Y" horiz-adv-x="1002" 
d="M654 0h-308v581l-344 1201h291l361 -1443v-339zM529 1052l125 730h346l-346 -1236z" />
    <glyph glyph-name="Z" unicode="Z" horiz-adv-x="975" 
d="M441 221h452v-221h-536zM527 1560h-393v222h477zM665 1782h228v-210l-589 -1572h-227v219z" />
    <glyph glyph-name="bracketleft" unicode="[" horiz-adv-x="715" 
d="M412 -64h-257v1942h257v-1942zM462 77h191v-141h-191v141zM462 1878h191v-140h-191v140z" />
    <glyph glyph-name="backslash" unicode="\" horiz-adv-x="631" 
d="M50 1816h256l277 -1816h-256z" />
    <glyph glyph-name="bracketright" unicode="]" horiz-adv-x="678" 
d="M303 1839h233v-1903h-233v1903zM252 1721h-187v118h187v-118zM252 -64h-187v118h187v-118z" />
    <glyph glyph-name="asciicircum" unicode="^" horiz-adv-x="912" 
d="M60 905q3 5 15.5 32t31.5 67t42 90t47 101q55 120 125 270h131v-204l-127 -356h-265zM629 905l-127 356v204h131q70 -150 125 -270q24 -51 47 -101t41.5 -90t31.5 -67t16 -32h-265z" />
    <glyph glyph-name="underscore" unicode="_" horiz-adv-x="848" 
d="M30 199h782v-199h-782v199z" />
    <glyph glyph-name="grave" unicode="`" horiz-adv-x="595" 
d="M516 1378h-211l-366 362h304z" />
    <glyph glyph-name="a" unicode="a" horiz-adv-x="1100" 
d="M528 1135l-198 -1135h-305l378 1782h242zM697 1782l378 -1782h-313l-77 399h-232l27 185h182l-86 530z" />
    <glyph glyph-name="b" unicode="b" horiz-adv-x="1115" 
d="M482 1067h51q53 0 87 21t53.5 57t27 84t7.5 101q0 78 -14.5 124.5t-42 71.5t-67.5 33t-92 8h-10v215h4q115 0 210.5 -22.5t163 -75.5t105 -141t37.5 -219q0 -136 -63 -221t-190 -130q82 -22 139 -65.5t92.5 -102t51 -129.5t15.5 -149q0 -129 -28.5 -227t-89 -165
t-154.5 -101t-225 -34h-68v226h38q71 0 114 20.5t66.5 61t31 100.5t7.5 138q0 66 -10 123t-34.5 98.5t-67 65t-106.5 23.5h-39v211zM116 0v1782h316v-1782h-316z" />
    <glyph glyph-name="c" unicode="c" horiz-adv-x="1152" 
d="M620 214q48 7 77 37t44.5 75t21 99.5t5.5 109.5v170h309v-137q-2 -116 -23.5 -222.5t-73.5 -189t-139.5 -133.5t-220.5 -56v247zM620 1815q127 -5 214.5 -50.5t141.5 -123t77.5 -182.5t23.5 -227v-136h-310v152q0 53 -5 107t-20.5 99t-44.5 75.5t-77 37.5v248zM570 1568
q-51 -6 -82.5 -33.5t-49.5 -68.5t-24 -89.5t-6 -96.5v-779q0 -48 6 -96.5t24 -89.5t49.5 -68.5t82.5 -33.5v-246q-138 4 -229.5 54.5t-147 133t-78.5 191.5t-23 232v624q0 125 23 235t78.5 192.5t147.5 131.5t229 54v-247z" />
    <glyph glyph-name="d" unicode="d" horiz-adv-x="1148" 
d="M482 225h9q73 0 121 9.5t76 33.5t39.5 65t11.5 104v925q0 53 -14 90t-44 60t-76 33.5t-109 10.5h-14v226h12q168 0 277 -35t172.5 -105.5t88 -177t24.5 -249.5v-615q0 -97 -8.5 -179t-31.5 -149t-63 -117.5t-102.5 -85t-151 -52t-208.5 -17.5h-9v225zM116 0v1782h316
v-1782h-316z" />
    <glyph glyph-name="e" unicode="e" horiz-adv-x="871" 
d="M116 0v1782h316v-1782h-316zM482 221h351v-221h-351v221zM482 1782h351v-221h-351v221zM482 1035h235v-225h-235v225z" />
    <glyph glyph-name="f" unicode="f" horiz-adv-x="842" 
d="M116 0v1782h316v-1782h-316zM482 1782h351v-221h-351v221zM482 1035h235v-225h-235v225z" />
    <glyph glyph-name="g" unicode="g" horiz-adv-x="1211" 
d="M628 1815q133 -4 223 -50.5t145 -126t79 -186.5t24 -231v-85h-305v100q0 55 -4.5 111.5t-21 103.5t-50 79t-90.5 38v247zM623 213q54 4 87.5 32.5t52 69.5t25 89t6.5 93v177h-129v229h445v-903h-209l-46 135q-35 -61 -97 -102.5t-135 -57.5v238zM574 -32q-7 -1 -13 -1
h-13q-89 0 -157.5 25t-119 68.5t-85 100.5t-55.5 121.5t-30 132t-9 130.5v655q0 125 23.5 234.5t80 192.5t149.5 132.5t233 54.5v-247q-52 -6 -85 -34t-52 -67.5t-26 -87t-7 -93.5v-795q0 -45 6.5 -91t24.5 -85t50.5 -66t84.5 -34v-246z" />
    <glyph glyph-name="h" unicode="h" horiz-adv-x="1187" 
d="M1072 1782v-1782h-319v810h-271v202h271v770h319zM432 0h-316v1782h317z" />
    <glyph glyph-name="i" unicode="i" horiz-adv-x="548" 
d="M115 1782h317v-1782h-317v1782z" />
    <glyph glyph-name="j" unicode="j" horiz-adv-x="612" 
d="M3 198q55 0 89.5 7.5t54 32t27 70t7.5 121.5v1353h316v-1355q0 -114 -14 -199t-57 -141.5t-121 -84.5t-206 -28h-96v224z" />
    <glyph glyph-name="k" unicode="k" horiz-adv-x="1147" 
d="M482 1094l272 688h351l-364 -801l403 -981h-329l-333 857v237zM116 0v1782h316v-1782h-316z" />
    <glyph glyph-name="l" unicode="l" horiz-adv-x="837" 
d="M116 0v1782h316v-1782h-316zM482 221h336v-221h-336v221z" />
    <glyph glyph-name="m" unicode="m" horiz-adv-x="1518" 
d="M1107 1781v-910l-263 -871h-170l-263 871v910h18l330 -1332l327 1332h21zM116 0v1782h245v-1782h-245zM1157 0v1782h245v-1782h-245z" />
    <glyph glyph-name="n" unicode="n" horiz-adv-x="1183" 
d="M345 1783l43 -104v-1679h-272v1783h229zM804 105v1678h263v-1783h-221zM438 1558l316 -690v-637l-316 718v609z" />
    <glyph glyph-name="o" unicode="o" 
d="M573 1568q-51 -6 -83 -33.5t-50.5 -68.5t-25 -89.5t-6.5 -96.5v-780q0 -48 6.5 -96.5t24.5 -89t50.5 -68t83.5 -33.5v-246q-137 4 -229 53t-148 130.5t-80 189.5t-24 231v631q0 125 23.5 235t79.5 192.5t148.5 131.5t229.5 54v-247zM623 1815q137 -5 229.5 -54
t149 -131.5t80.5 -192t24 -235.5v-624q0 -123 -24 -232t-80 -191.5t-148.5 -133t-230.5 -54.5v246q52 6 84.5 33t50.5 67.5t24.5 89.5t6.5 97v780q0 48 -6.5 97t-25 89.5t-51 68t-83.5 33.5v247z" />
    <glyph glyph-name="p" unicode="p" horiz-adv-x="1028" 
d="M432 0h-316v1782h316v-1782zM482 1782h66q120 0 203.5 -35.5t136 -101t76 -157.5t23.5 -205q0 -141 -31.5 -238.5t-94 -158.5t-154.5 -89t-213 -28h-12v227h26q61 0 96 17.5t53 53.5t23 91t5 130q0 61 -6.5 110.5t-32 84t-76 53t-138.5 18.5h50v228z" />
    <glyph glyph-name="q" unicode="q" horiz-adv-x="1205" 
d="M575 -35q-129 4 -221 51.5t-150 128t-85 189.5t-27 237v631q0 126 24 235.5t80 192t149 131.5t230 54v-248q-51 -6 -83 -34t-51 -68.5t-26 -88.5t-7 -96v-779q0 -48 7 -96.5t26 -88.5t51 -68t83 -34v-249zM625 213q54 4 87.5 31t52 67.5t24.5 90t6 99.5v779q0 49 -7 98
t-25.5 89.5t-52 68t-85.5 32.5v247q139 -3 232 -52t149.5 -131.5t80.5 -193t24 -236.5v-624q0 -76 -10.5 -151t-35 -144t-65 -129.5t-100.5 -107.5q14 -24 40 -39t54 -23t53 -11.5t37 -4.5v-197q-81 1 -141.5 20.5t-105.5 48.5t-77 64t-55 69q-20 -3 -40 -5t-40 -3v248z" />
    <glyph glyph-name="r" unicode="r" horiz-adv-x="1119" 
d="M482 1031h99q51 0 82 28.5t48 69.5t22.5 86t5.5 78q0 34 -5 78t-20.5 83.5t-44 66.5t-74.5 27h-113v234h44q126 0 224.5 -27.5t166 -84.5t102.5 -145t35 -210q0 -61 -5 -124t-26.5 -121.5t-66.5 -109t-126 -86.5l253 -874h-323l-207 831h-71v200zM116 0v1782h316v-1782
h-316z" />
    <glyph glyph-name="s" unicode="s" horiz-adv-x="1054" 
d="M557 1816q92 -2 170.5 -36.5t136.5 -93.5t92.5 -139.5t38.5 -173.5v-37l-321 -50q0 14 1 29t1 31q-2 34 -9 70t-20.5 67t-35.5 54t-54 32v247zM520 -34q-114 6 -197 52t-139 119t-85.5 165t-36.5 191l317 64q2 -56 8.5 -112.5t22 -104t42 -81.5t68.5 -45v-248zM401 824
l-72 68q-50 44 -97.5 91t-85 103t-60 124.5t-22.5 154.5q0 100 32 180.5t90.5 138.5t140 91.5t180.5 39.5v-243q-33 -3 -58 -18.5t-41.5 -38.5t-24.5 -53t-8 -63q0 -45 11.5 -84t32 -73t48 -64.5t59.5 -58.5q14 -13 38 -35.5t50 -46.5zM649 1002l37 -33q65 -60 122.5 -122.5
t100 -132.5t67.5 -151t25 -178q0 -94 -34 -170t-92.5 -130.5t-137 -85.5t-167.5 -34v244q34 2 57.5 15t38.5 35t21.5 50.5t6.5 62.5q0 56 -18.5 108.5t-49 100.5t-69.5 91.5t-80 81.5l-40 37z" />
    <glyph glyph-name="t" unicode="t" horiz-adv-x="884" 
d="M602 1494v-1494h-317v1494h317zM5 1782h874v-238h-874v238z" />
    <glyph glyph-name="u" unicode="u" horiz-adv-x="1223" 
d="M639 212q58 3 90.5 29t48.5 75.5t19.5 124t3.5 174.5v1167h316v-1168q0 -84 -6.5 -164t-25.5 -151.5t-52 -131t-86 -103.5t-129 -69.5t-179 -27.5v245zM589 -33q-103 3 -179 28.5t-129.5 69.5t-87.5 104t-53.5 131t-26.5 150.5t-7 163.5v1168h317v-1167q0 -98 5.5 -171
t23 -122.5t50 -76t87.5 -32.5v-246z" />
    <glyph glyph-name="v" unicode="v" horiz-adv-x="1053" 
d="M368 0l-341 1782h304l167 -1035zM725 1782h301l-356 -1782h-251z" />
    <glyph glyph-name="w" unicode="w" horiz-adv-x="1475" 
d="M1056 850l114 932h273l-258 -1782zM551 0h-259l-260 1782h273l113 -931zM469 852l142 930h251l141 -932l133 -850h-231l-167 1254l-152 -1157z" />
    <glyph glyph-name="x" unicode="x" horiz-adv-x="1078" 
d="M469 470l-167 -470h-297l308 864zM4 1782h332l706 -1782h-334zM564 1341l140 441h303l-283 -842z" />
    <glyph glyph-name="y" unicode="y" horiz-adv-x="1002" 
d="M654 0h-308v581l-344 1201h291l361 -1443v-339zM529 1052l125 730h346l-346 -1236z" />
    <glyph glyph-name="z" unicode="z" horiz-adv-x="975" 
d="M441 221h452v-221h-536zM527 1560h-393v222h477zM665 1782h228v-210l-589 -1572h-227v219z" />
    <glyph glyph-name="braceleft" unicode="{" horiz-adv-x="708" 
d="M644 -62q-98 0 -169.5 20t-121.5 57.5t-81.5 91t-49 121.5t-24 149t-6.5 172v61q0 34 -3.5 64.5t-16.5 53t-39 35.5t-71 13v265q45 0 70.5 25.5t39 64t17 84t3.5 86.5v66q0 142 20 239.5t71 158t138.5 87.5t222.5 27v-198q-74 0 -114.5 -17t-59 -53t-21.5 -93t-3 -138
q0 -58 -6.5 -127t-25 -135t-53 -122t-89.5 -87q54 -27 86.5 -66.5t51 -87.5t25.5 -101t9 -107q2 -57 3.5 -109t6.5 -98t16 -83.5t32.5 -64.5t55.5 -42t86 -15v-197z" />
    <glyph glyph-name="bar" unicode="|" horiz-adv-x="426" 
d="M138 1922h198v-2052h-198v2052z" />
    <glyph glyph-name="braceright" unicode="}" horiz-adv-x="710" 
d="M60 135q75 0 114 30.5t57 83.5t21.5 124.5t6.5 153.5q1 56 7.5 112.5t24.5 107t51.5 92.5t89.5 70q-55 30 -89 86.5t-53 123t-25.5 135.5t-6.5 126q0 81 -3 138t-22 93t-59 53t-114 17v198q135 0 222.5 -26.5t138.5 -87t71 -158.5t20 -240q0 -14 -0.5 -30.5t-0.5 -35.5
q0 -41 3.5 -86.5t17 -84t39.5 -64t71 -25.5v-265q-45 0 -71 -13t-39.5 -35.5t-17 -53t-3.5 -64.5q0 -15 0.5 -30t0.5 -31q0 -91 -6.5 -172t-24 -149t-49 -122t-81.5 -91t-121.5 -57t-169.5 -20v197z" />
    <glyph glyph-name="asciitilde" unicode="~" horiz-adv-x="980" 
d="M130 868q0 50 11.5 100t37.5 89.5t68 64.5t104 25q39 0 77.5 -13.5t75.5 -29t70 -29t60 -13.5q13 0 21 6.5t13 16.5t7 22t2 24h167q0 -47 -11 -97t-37 -91t-68 -67t-105 -26q-41 0 -81.5 13.5t-78 29.5t-70 29.5t-56.5 13.5q-13 0 -20.5 -6.5t-12 -16t-6 -21.5t-1.5 -24
h-167z" />
    <glyph glyph-name="exclamdown" unicode="&#xa1;" horiz-adv-x="504" 
d="M105 1781h292v-286h-292v286zM199 1336h102l109 -1336h-310z" />
    <glyph glyph-name="cent" unicode="&#xa2;" horiz-adv-x="1152" 
d="M563 314q48 7 77 37t44.5 75t21 99.5t5.5 109.5v70h309v-37q-2 -116 -23.5 -222.5t-73.5 -189t-139.5 -133.5t-220.5 -56v247zM563 1615q127 -5 214.5 -50.5t141.5 -123t77.5 -182.5t23.5 -227v-96h-310v112q0 53 -5 107t-20.5 99t-44.5 75.5t-77 37.5v248zM513 1368
q-51 -6 -82.5 -33.5t-49.5 -68.5t-24 -89.5t-6 -96.5v-479q0 -48 6 -96.5t24 -89.5t49.5 -68.5t82.5 -33.5v-246q-138 4 -229.5 54.5t-147 133t-78.5 191.5t-23 232v324q0 125 23 235t78.5 192.5t147.5 131.5t229 54v-247zM484 1861h110v-198h-110v198zM484 10h110v-198
h-110v198z" />
    <glyph glyph-name="sterling" unicode="&#xa3;" horiz-adv-x="1070" 
d="M78 0v159l122 57v519h-122v225h122v246q0 65 4 135t18 136.5t40 127t69.5 106t107 73.5t153.5 30v-248q-28 -7 -43 -42t-21.5 -87t-7.5 -115.5t-1 -126.5v-1195h-441zM642 1813q79 -4 135.5 -27.5t94 -61.5t59.5 -87t33.5 -103t14.5 -111t3 -110h-281q0 29 -1 66
t-6.5 72.5t-17.5 65t-34 42.5v254zM569 246h405v-246h-405v246zM569 961h203v-226h-203v226z" />
    <glyph glyph-name="currency" unicode="&#xa4;" horiz-adv-x="1048" 
d="M500 448q-63 3 -112.5 18.5t-90.5 41.5l-84 -94l-82 78l84 94q-42 54 -61 119t-19 134q0 67 19 131t60 118l-83 93l82 78l83 -92q41 26 91 42t113 19v-153q-50 -5 -86.5 -27t-60 -54.5t-35 -72.5t-11.5 -82q0 -43 12.5 -84t37 -73.5t60.5 -54.5t83 -27v-152zM550 600
q49 5 85 27t60 55t35.5 73.5t11.5 82.5t-11.5 82t-35 73t-60 55t-85.5 27v153q63 -3 114 -19.5t93 -43.5l84 94l82 -78l-86 -96q40 -53 58.5 -116.5t18.5 -129.5q0 -69 -19 -132.5t-59 -117.5l87 -97l-82 -78l-85 96q-41 -26 -92 -42.5t-114 -19.5v152z" />
    <glyph glyph-name="yen" unicode="&#xa5;" horiz-adv-x="1053" 
d="M848 252h-194v-252h-308v252h-190v175h190v125h-190v172h149l-303 1058h291l339 -1355h216v-175zM529 1052l125 730h346l-298 -1058h146v-172h-194z" />
    <glyph glyph-name="brokenbar" unicode="&#xa6;" horiz-adv-x="433" 
d="M107 625h211v-640h-211v640zM107 1537h211v-639h-211v639z" />
    <glyph glyph-name="section" unicode="&#xa7;" horiz-adv-x="985" 
d="M513 1829q75 -4 134 -33t103.5 -76.5t74.5 -109t47 -131.5l-201 -66q-9 28 -23 60.5t-33.5 61.5t-44.5 51t-57 29v214zM463 -19q-77 4 -137 34t-105 78t-76 110.5t-49 133.5l197 66q10 -29 26 -62t37 -63t48 -53t59 -30v-214zM511 775q36 0 58 9.5t34 24t16 32t4 33.5
q0 18 -9.5 38.5t-25 41.5t-35.5 41.5t-40 38.5l-1 289q63 -40 128 -85t117.5 -99t86 -119.5t33.5 -145.5q0 -89 -37.5 -150t-129.5 -94q36 -25 65.5 -61t50 -77t32 -85t11.5 -85q0 -82 -27 -144.5t-75 -105.5t-113 -66t-141 -26v213q52 5 77 39t25 89q0 60 -28.5 105
t-73.5 83zM463 537q-57 38 -121 76t-118 84.5t-89.5 106.5t-35.5 144q0 99 49.5 171t146.5 108q-32 22 -65.5 50.5t-60.5 62t-44.5 71t-17.5 78.5q0 82 27 144t75 104.5t113 65.5t141 26v-212q-48 -7 -73.5 -40t-25.5 -85q0 -38 24 -70.5t58 -56.5l17 -11v-295
q-36 0 -58.5 -7.5t-35.5 -20.5t-18 -31t-5 -39q0 -26 10 -47.5t26.5 -40t37.5 -35t43 -31.5v-270z" />
    <glyph glyph-name="dieresis" unicode="&#xa8;" horiz-adv-x="898" 
d="M115 1748h277v-280h-277v280zM553 1748h277v-280h-277v280z" />
    <glyph glyph-name="copyright" unicode="&#xa9;" horiz-adv-x="1565" 
d="M806 1198q53 -2 93 -19t69 -43.5t47.5 -61t29.5 -73t15.5 -78.5t4.5 -77h-185q0 24 -2 55.5t-9 61t-21.5 52.5t-41.5 29v154zM806 379q27 9 42.5 33t22.5 55t8.5 64t1.5 59h183q0 -63 -12.5 -126t-42.5 -115.5t-79.5 -87t-123.5 -40.5v158zM756 221q-67 3 -112.5 25
t-76 57.5t-47 82t-24.5 99t-9.5 109t-1.5 111.5q0 57 1.5 114.5t9.5 110.5t24.5 100t46.5 82.5t76 58t113 26.5v-154q-27 -6 -46 -26t-30.5 -58.5t-16.5 -98t-5 -144.5q0 -98 5.5 -161.5t17.5 -101.5t30.5 -55t44.5 -21v-156zM756 -12q-99 3 -188 31t-164 76.5t-135.5 115
t-102.5 145.5t-64.5 168.5t-22.5 183.5t22.5 183.5t65 168.5t102.5 145.5t135.5 115.5t164 77t187.5 31v-160q-114 -4 -206.5 -52.5t-158 -126.5t-101 -178t-35.5 -207t35.5 -206.5t101 -177t158 -126.5t206.5 -53v-154zM806 143q111 6 201.5 55.5t154.5 127t99 176
t35 203.5t-35 203.5t-99 176t-154.5 127t-201.5 56.5v160q98 -4 185.5 -33t162 -78t133.5 -115.5t100.5 -145t64 -167t22.5 -181.5q0 -140 -49.5 -267.5t-138 -226t-211 -159t-269.5 -66.5v154z" />
    <glyph glyph-name="guillemotleft" unicode="&#xab;" horiz-adv-x="1014" 
d="M79 576v128l434 499v-294l-260 -268l260 -270v-294zM496 576v128l435 499v-294l-260 -268l260 -270v-294z" />
    <glyph glyph-name="logicalnot" unicode="&#xac;" horiz-adv-x="791" 
d="M128 651h523v-393h-135v194h-388v199z" />
    <glyph glyph-name="uni00AD" unicode="&#xad;" horiz-adv-x="772" 
d="M136 660h519v-224h-519v224z" />
    <glyph glyph-name="registered" unicode="&#xae;" horiz-adv-x="1565" 
d="M803 143q112 5 203.5 54t155.5 126.5t99 176.5t35 205q0 105 -35 204t-99.5 177t-155.5 127t-203 55v160q98 -4 186 -32.5t162.5 -77.5t134.5 -115.5t101.5 -145t64 -167.5t22.5 -182t-22.5 -182t-64 -168t-101.5 -145t-134.5 -115t-162.5 -78t-186 -32v155zM753 -12
q-98 3 -186.5 31.5t-163.5 77.5t-135 115.5t-102 145t-64.5 167.5t-22.5 183q0 141 50 269.5t139 227.5t213 159t272 65v-160q-113 -5 -205 -53.5t-157 -126.5t-100.5 -178t-35.5 -206t35.5 -205t101 -176.5t157 -126.5t204.5 -54v-155zM738 772q38 1 65 7.5t44 21.5
t25 40.5t8 64.5q0 29 -6 53t-20.5 41.5t-38.5 27t-59 9.5h-18v127h32q73 0 125 -18t85.5 -51.5t49 -82t15.5 -109.5q0 -69 -34 -122t-97 -83l146 -417h-175l-120 383h-27v108zM527 281v883h161v-883h-161z" />
    <glyph glyph-name="macron" unicode="&#xaf;" horiz-adv-x="490" 
d="M1 1616h493v-176h-493v176z" />
    <glyph glyph-name="degree" unicode="&#xb0;" horiz-adv-x="993" 
d="M464 1108q-79 4 -141.5 32t-105.5 75t-65.5 112t-22.5 142q0 78 23 142.5t66 111.5t105 74.5t141 31.5v-172q-38 -4 -65 -21t-45 -42.5t-26.5 -57.5t-8.5 -67t9 -67t27 -58t45 -43.5t64 -21.5v-171zM514 1279q37 4 65 21.5t46.5 43t27.5 57.5t9 67t-9 67t-27.5 57.5
t-46.5 42.5t-65 22v173q80 -3 143 -31t106.5 -75t66.5 -112t23 -143t-23 -142.5t-66.5 -112t-106.5 -75t-143 -31.5v171z" />
    <glyph glyph-name="plusminus" unicode="&#xb1;" horiz-adv-x="852" 
d="M130 199h586v-199h-586v199zM323 581h-193v199h193v194h201v-194h192v-199h-192v-193h-201v193z" />
    <glyph glyph-name="twosuperior" unicode="&#xb2;" horiz-adv-x="711" 
d="M330 1416q-18 -8 -28 -25.5t-14.5 -39.5t-5 -46t-0.5 -43h-205q0 66 16 120.5t48 94t79 63t110 27.5v-151zM362 732h262v-148h-371zM77 584v137q23 29 57.5 74t73 97.5t77 108.5t69.5 109t50 98.5t19 76.5q0 18 -1 38t-5.5 38.5t-13 33t-23.5 21.5v151
q120 -7 183.5 -81.5t63.5 -200.5q0 -33 -12.5 -70.5t-32.5 -77.5t-46 -79.5t-53 -76.5l-293 -397h-113z" />
    <glyph glyph-name="threesuperior" unicode="&#xb3;" horiz-adv-x="816" 
d="M382 1469q-20 -7 -30.5 -25t-15 -40.5t-5.5 -46.5t-1 -44h-201q0 66 16 120.5t47.5 94t78.5 63t110 27.5zM381 635q-63 4 -110 27t-78.5 62.5t-47.5 94t-16 120.5h201q0 -20 1 -44t5.5 -46.5t15 -40t29.5 -24.5v-149zM432 787q15 7 23.5 21.5t13 32.5t5.5 38.5t1 39.5
q0 69 -32.5 104t-104.5 38v142q75 5 106 35t31 98q0 18 -1 37.5t-5.5 38t-13 33t-23.5 22.5v151q59 -4 104.5 -25.5t77 -58t47.5 -86.5t16 -110q0 -72 -36 -125.5t-102 -81.5q66 -29 102 -84.5t36 -127.5q0 -123 -63.5 -199t-181.5 -85v152z" />
    <glyph glyph-name="acute" unicode="&#xb4;" horiz-adv-x="595" 
d="M382 1740h304l-366 -362h-211z" />
    <glyph glyph-name="paragraph" unicode="&#xb6;" horiz-adv-x="1009" 
d="M393 885q-79 1 -147 23.5t-117.5 65t-77.5 104t-28 140.5q0 91 31 155t86.5 104.5t131.5 59t166 18.5h480v-1555h-186v885h-135v-885h-204v885z" />
    <glyph glyph-name="periodcentered" unicode="&#xb7;" horiz-adv-x="503" 
d="M106 969h292v-284h-292v284z" />
    <glyph glyph-name="cedilla" unicode="&#xb8;" horiz-adv-x="555" 
d="M127 -385h51t68.5 4t60 14t25.5 29q0 21 -17 39.5t-41 34t-50 27t-43 19.5v93l147 -1q34 -17 70 -39t65.5 -49t48.5 -59.5t19 -69.5q0 -42 -20 -72t-53 -50t-75.5 -32t-87.5 -18t-89 -7.5t-79 -1.5v139z" />
    <glyph glyph-name="onesuperior" unicode="&#xb9;" horiz-adv-x="553" 
d="M208 1501q33 24 62.5 52t54.5 61h87v-979h-204v866zM158 1266q-13 -3 -34 -5t-41 -4t-36 -3.5t-19 -2.5v146q32 16 65 34t65 41v-206z" />
    <glyph glyph-name="guillemotright" unicode="&#xbb;" horiz-adv-x="1013" 
d="M86 371l261 270l-261 268v294l435 -499v-128l-435 -499v294zM504 371l260 270l-260 268v294l434 -499v-128l-434 -499v294z" />
    <glyph glyph-name="onequarter" unicode="&#xbc;" horiz-adv-x="1651" 
d="M978 1810h173l-573 -1810h-171zM213 1502q33 24 62.5 52t54.5 61h87v-979h-204v866zM163 1267q-13 -3 -34 -5t-41 -4t-36 -3.5t-19 -2.5v146q32 16 65 34t65 41v-206zM1463 1030v-1029h-203v568l200 461h3zM1136 410h74v-146h-267v137l302 629h161zM1513 410h81v-146h-81
v146z" />
    <glyph glyph-name="onehalf" unicode="&#xbd;" horiz-adv-x="1699" 
d="M1005 1810h172l-572 -1810h-171zM213 1502q33 24 62.5 52t54.5 61h87v-979h-204v866zM163 1267q-13 -3 -34 -5t-41 -4t-36 -3.5t-19 -2.5v146q32 16 65 34t65 41v-206zM1333 831q-18 -8 -28 -25.5t-14.5 -39.5t-5 -46t-0.5 -43h-205q0 66 16 120.5t48 94t79 63t110 27.5
v-151zM1365 147h262v-148h-371zM1080 -1v137q23 29 57.5 74t73 97.5t77 108.5t69.5 109t50 98.5t19 76.5q0 18 -1 38t-5.5 38.5t-13 33t-23.5 21.5v151q120 -7 183.5 -81.5t63.5 -200.5q0 -33 -12.5 -70.5t-32.5 -77.5t-46 -79.5t-53 -76.5l-293 -397h-113z" />
    <glyph glyph-name="threequarters" unicode="&#xbe;" horiz-adv-x="1894" 
d="M1171 1810h173l-573 -1810h-171zM1653 1030v-1029h-203v568l200 461h3zM1326 410h74v-146h-267v137l302 629h161zM1703 410h81v-146h-81v146zM382 1469q-20 -7 -30.5 -25t-15 -40.5t-5.5 -46.5t-1 -44h-201q0 66 16 120.5t47.5 94t78.5 63t110 27.5zM381 635
q-63 4 -110 27t-78.5 62.5t-47.5 94t-16 120.5h201q0 -20 1 -44t5.5 -46.5t15 -40t29.5 -24.5v-149zM432 787q15 7 23.5 21.5t13 32.5t5.5 38.5t1 39.5q0 69 -32.5 104t-104.5 38v142q75 5 106 35t31 98q0 18 -1 37.5t-5.5 38t-13 33t-23.5 22.5v151q59 -4 104.5 -25.5
t77 -58t47.5 -86.5t16 -110q0 -72 -36 -125.5t-102 -81.5q66 -29 102 -84.5t36 -127.5q0 -123 -63.5 -199t-181.5 -85v152z" />
    <glyph glyph-name="questiondown" unicode="&#xbf;" horiz-adv-x="1099" 
d="M666.027 224.095q58.9961 11 91.4941 62.9961q32.498 51.9971 32.498 126.993q0 11.999 -1 28.998t-2.49902 34.998q-1.5 17.998 -4.5 34.9971t-6 28.999l272.983 45.9971q6 -20.999 10 -46.9971q3.99902 -25.999 6.99902 -52.4971q3 -26.499 4.5 -51.4971t1.5 -43.9971
q0 -90.9951 -25.999 -167.49q-25.998 -76.4951 -76.9951 -132.991q-50.9971 -56.4971 -126.992 -88.9951t-175.989 -36.498v256.984zM616.03 -32.8896q-95.9941 4 -173.989 34.498t-132.992 86.9951q-54.9961 56.4961 -84.4941 137.991t-29.498 187.489
q0 78.9951 26.998 149.99q26.998 70.9961 66.9961 136.992q39.9971 65.9951 86.9941 126.992q46.9971 60.9961 86.9951 119.492q39.9971 58.4961 66.9961 115.493q26.998 56.9961 26.998 113.993v70.9951h289.982v-96.9941q0 -74.9951 -26.499 -139.991
q-26.498 -64.9961 -66.4951 -124.992q-39.998 -59.9961 -86.9951 -116.993q-46.9971 -56.9961 -86.9951 -115.492q-39.9971 -58.4971 -66.4951 -120.993q-26.499 -62.4961 -26.499 -133.492q0 -81.9941 35.498 -124.492q35.498 -42.4971 93.4941 -50.4971v-256.984z
M852.016 1490.02h-299.981v291.982h299.981v-291.982z" />
    <glyph glyph-name="Agrave" unicode="&#xc0;" horiz-adv-x="1101" 
d="M455 1782h242l378 -1782h-305l-198 1135zM524 1114l-86 -530h182l27 -185h-232l-77 -399h-313l378 1782zM640 1880h-211l-366 362h304z" />
    <glyph glyph-name="Aacute" unicode="&#xc1;" horiz-adv-x="1101" 
d="M455 1782h242l378 -1782h-305l-198 1135zM524 1114l-86 -530h182l27 -185h-232l-77 -399h-313l378 1782zM720 2242h304l-366 -362h-211z" />
    <glyph glyph-name="Acircumflex" unicode="&#xc2;" horiz-adv-x="1101" 
d="M455 1782h242l378 -1782h-305l-198 1135zM524 1114l-86 -530h182l27 -185h-232l-77 -399h-313l378 1782zM672 1872l-127 208v204h131q70 -110 125 -198q24 -38 47 -74.5t41.5 -66.5t31.5 -49.5t16 -23.5h-265zM103 1872q3 4 15.5 23.5t31.5 49.5t42 66.5t47 74.5
q55 88 125 198h131v-204l-127 -208h-265z" />
    <glyph glyph-name="Atilde" unicode="&#xc3;" horiz-adv-x="1101" 
d="M455 1782h242l378 -1782h-305l-198 1135zM524 1114l-86 -530h182l27 -185h-232l-77 -399h-313l378 1782zM205 1920q0 48 6 97t25.5 88t56 64t97.5 25q42 0 82 -9.5t75.5 -21.5t65.5 -21.5t52 -9.5q27 0 34 14t8 37h147q0 -33 -4 -79.5t-20.5 -90t-49 -74t-89.5 -30.5
q-35 0 -70.5 11.5t-71 25.5t-70.5 25.5t-67 11.5q-18 0 -28 -5t-15 -13.5t-6.5 -20t-2.5 -24.5h-155z" />
    <glyph glyph-name="Adieresis" unicode="&#xc4;" horiz-adv-x="1101" 
d="M455 1782h242l378 -1782h-305l-198 1135zM524 1114l-86 -530h182l27 -185h-232l-77 -399h-313l378 1782zM190 2250h277v-280h-277v280zM628 2250h277v-280h-277v280z" />
    <glyph glyph-name="Aring" unicode="&#xc5;" horiz-adv-x="1101" 
d="M455 1782h242l378 -1782h-305l-198 1135zM524 1114l-86 -530h182l27 -185h-232l-77 -399h-313l378 1782zM506 1896q-49 4 -89.5 22.5t-69 49t-44.5 71.5t-16 90t16 90t44.5 72t69 49.5t89.5 22.5v-113q-19 -6 -32 -19t-21 -30t-11.5 -35.5t-3.5 -35.5t3.5 -35.5
t11.5 -35.5t21 -30.5t32 -19.5v-113zM556 2008q19 5 32.5 18t21.5 30.5t11.5 36.5t3.5 36q0 16 -3.5 35.5t-12 36.5t-21.5 30.5t-32 19.5v112q49 -4 90 -22.5t70.5 -49t45.5 -72t16 -90.5q0 -50 -16 -91t-45 -71.5t-70 -49t-91 -21.5v112z" />
    <glyph glyph-name="AE" unicode="&#xc6;" horiz-adv-x="1516" 
d="M331 0h-306l677 1782h258zM782 0v399h-256l69 195h187v532l232 656h64v-1782h-296zM1128 1782h350v-221h-350v221zM1128 221h350v-221h-350v221zM1128 1035h234v-225h-234v225z" />
    <glyph glyph-name="Ccedilla" unicode="&#xc7;" horiz-adv-x="1151" 
d="M620 214q48 7 77 37t44.5 75t21 99.5t5.5 109.5v170h309v-137q-2 -116 -23.5 -222.5t-73.5 -189t-139.5 -133.5t-220.5 -56v247zM620 1815q127 -5 214.5 -50.5t141.5 -123t77.5 -182.5t23.5 -227v-136h-310v152q0 53 -5 107t-20.5 99t-44.5 75.5t-77 37.5v248zM570 1568
q-51 -6 -82.5 -33.5t-49.5 -68.5t-24 -89.5t-6 -96.5v-779q0 -48 6 -96.5t24 -89.5t49.5 -68.5t82.5 -33.5v-246q-138 4 -229.5 54.5t-147 133t-78.5 191.5t-23 232v624q0 125 23 235t78.5 192.5t147.5 131.5t229 54v-247zM465 -385h51t68.5 4t60 14t25.5 29q0 21 -17 39.5
t-41 34t-50 27t-43 19.5v93l147 -1q34 -17 70 -39t65.5 -49t48.5 -59.5t19 -69.5q0 -42 -20 -72t-53 -50t-75.5 -32t-87.5 -18t-89 -7.5t-79 -1.5v139z" />
    <glyph glyph-name="Egrave" unicode="&#xc8;" horiz-adv-x="871" 
d="M116 0v1782h316v-1782h-316zM482 221h351v-221h-351v221zM482 1782h351v-221h-351v221zM482 1035h235v-225h-235v225zM553 1893h-211l-366 362h304z" />
    <glyph glyph-name="Eacute" unicode="&#xc9;" horiz-adv-x="871" 
d="M633 2255h304l-366 -362h-211zM116 0v1782h316v-1782h-316zM482 221h351v-221h-351v221zM482 1782h351v-221h-351v221zM482 1035h235v-225h-235v225z" />
    <glyph glyph-name="Ecircumflex" unicode="&#xca;" horiz-adv-x="871" 
d="M585 1885l-127 208v204h131q70 -110 125 -198q24 -38 47 -74.5t41.5 -66.5t31.5 -49.5t16 -23.5h-265zM16 1885q3 4 15.5 23.5t31.5 49.5t42 66.5t47 74.5q55 88 125 198h131v-204l-127 -208h-265zM116 0v1782h316v-1782h-316zM482 221h351v-221h-351v221zM482 1782h351
v-221h-351v221zM482 1035h235v-225h-235v225z" />
    <glyph glyph-name="Edieresis" unicode="&#xcb;" horiz-adv-x="871" 
d="M104 2263h277v-280h-277v280zM542 2263h277v-280h-277v280zM116 0v1782h316v-1782h-316zM482 221h351v-221h-351v221zM482 1782h351v-221h-351v221zM482 1035h235v-225h-235v225z" />
    <glyph glyph-name="Igrave" unicode="&#xcc;" horiz-adv-x="548" 
d="M115 1782h317v-1782h-317v1782zM367 1880h-211l-366 362h304z" />
    <glyph glyph-name="Iacute" unicode="&#xcd;" horiz-adv-x="548" 
d="M115 1782h317v-1782h-317v1782zM446 2242h304l-366 -362h-211z" />
    <glyph glyph-name="Icircumflex" unicode="&#xce;" horiz-adv-x="548" 
d="M115 1782h317v-1782h-317v1782zM399 1872l-127 208v204h131q70 -110 125 -198q24 -38 47 -74.5t41.5 -66.5t31.5 -49.5t16 -23.5h-265zM-170 1872q3 4 15.5 23.5t31.5 49.5t42 66.5t47 74.5q55 88 125 198h131v-204l-127 -208h-265z" />
    <glyph glyph-name="Idieresis" unicode="&#xcf;" horiz-adv-x="548" 
d="M115 1782h317v-1782h-317v1782zM-83 2250h277v-280h-277v280zM355 2250h277v-280h-277v280z" />
    <glyph glyph-name="Eth" unicode="&#xd0;" horiz-adv-x="1150" 
d="M116 0v809h-95v199h95v774h317v-774h141v-199h-141v-809h-317zM483 225h14q71 0 118 10t74.5 34t39 65t11.5 103v925q0 53 -14.5 90t-44.5 60t-76.5 33.5t-110.5 10.5h-11v226h12q168 0 277 -35t172 -105.5t87.5 -177t24.5 -249.5v-615q0 -97 -8.5 -179t-31.5 -149
t-63 -117.5t-102.5 -85t-151 -52t-207.5 -17.5h-9v225z" />
    <glyph glyph-name="Ntilde" unicode="&#xd1;" horiz-adv-x="1183" 
d="M345 1783l43 -104v-1679h-272v1783h229zM804 105v1678h263v-1783h-221zM438 1558l316 -690v-637l-316 718v609zM253 1920q0 48 6 97t25.5 88t56 64t97.5 25q42 0 82 -9.5t75.5 -21.5t65.5 -21.5t52 -9.5q27 0 34 14t8 37h147q0 -33 -4 -79.5t-20.5 -90t-49 -74
t-89.5 -30.5q-35 0 -70.5 11.5t-71 25.5t-70.5 25.5t-67 11.5q-18 0 -28 -5t-15 -13.5t-6.5 -20t-2.5 -24.5h-155z" />
    <glyph glyph-name="Ograve" unicode="&#xd2;" 
d="M573 1568q-51 -6 -83 -33.5t-50.5 -68.5t-25 -89.5t-6.5 -96.5v-780q0 -48 6.5 -96.5t24.5 -89t50.5 -68t83.5 -33.5v-246q-137 4 -229 53t-148 130.5t-80 189.5t-24 231v631q0 125 23.5 235t79.5 192.5t148.5 131.5t229.5 54v-247zM623 1815q137 -5 229.5 -54
t149 -131.5t80.5 -192t24 -235.5v-624q0 -123 -24 -232t-80 -191.5t-148.5 -133t-230.5 -54.5v246q52 6 84.5 33t50.5 67.5t24.5 89.5t6.5 97v780q0 48 -6.5 97t-25 89.5t-51 68t-83.5 33.5v247zM738 1880h-211l-366 362h304z" />
    <glyph glyph-name="Oacute" unicode="&#xd3;" 
d="M573 1568q-51 -6 -83 -33.5t-50.5 -68.5t-25 -89.5t-6.5 -96.5v-780q0 -48 6.5 -96.5t24.5 -89t50.5 -68t83.5 -33.5v-246q-137 4 -229 53t-148 130.5t-80 189.5t-24 231v631q0 125 23.5 235t79.5 192.5t148.5 131.5t229.5 54v-247zM623 1815q137 -5 229.5 -54
t149 -131.5t80.5 -192t24 -235.5v-624q0 -123 -24 -232t-80 -191.5t-148.5 -133t-230.5 -54.5v246q52 6 84.5 33t50.5 67.5t24.5 89.5t6.5 97v780q0 48 -6.5 97t-25 89.5t-51 68t-83.5 33.5v247zM769 2242h304l-366 -362h-211z" />
    <glyph glyph-name="Ocircumflex" unicode="&#xd4;" 
d="M573 1568q-51 -6 -83 -33.5t-50.5 -68.5t-25 -89.5t-6.5 -96.5v-780q0 -48 6.5 -96.5t24.5 -89t50.5 -68t83.5 -33.5v-246q-137 4 -229 53t-148 130.5t-80 189.5t-24 231v631q0 125 23.5 235t79.5 192.5t148.5 131.5t229.5 54v-247zM623 1815q137 -5 229.5 -54
t149 -131.5t80.5 -192t24 -235.5v-624q0 -123 -24 -232t-80 -191.5t-148.5 -133t-230.5 -54.5v246q52 6 84.5 33t50.5 67.5t24.5 89.5t6.5 97v780q0 48 -6.5 97t-25 89.5t-51 68t-83.5 33.5v247zM721 1871l-127 208v204h131q70 -110 125 -198q24 -38 47 -74.5t41.5 -66.5
t31.5 -49.5t16 -23.5h-265zM152 1871q3 4 15.5 23.5t31.5 49.5t42 66.5t47 74.5q55 88 125 198h131v-204l-127 -208h-265z" />
    <glyph glyph-name="Otilde" unicode="&#xd5;" 
d="M573 1568q-51 -6 -83 -33.5t-50.5 -68.5t-25 -89.5t-6.5 -96.5v-780q0 -48 6.5 -96.5t24.5 -89t50.5 -68t83.5 -33.5v-246q-137 4 -229 53t-148 130.5t-80 189.5t-24 231v631q0 125 23.5 235t79.5 192.5t148.5 131.5t229.5 54v-247zM623 1815q137 -5 229.5 -54
t149 -131.5t80.5 -192t24 -235.5v-624q0 -123 -24 -232t-80 -191.5t-148.5 -133t-230.5 -54.5v246q52 6 84.5 33t50.5 67.5t24.5 89.5t6.5 97v780q0 48 -6.5 97t-25 89.5t-51 68t-83.5 33.5v247zM254 1920q0 48 6 97t25.5 88t56 64t97.5 25q42 0 82 -9.5t75.5 -21.5
t65.5 -21.5t52 -9.5q27 0 34 14t8 37h147q0 -33 -4 -79.5t-20.5 -90t-49 -74t-89.5 -30.5q-35 0 -70.5 11.5t-71 25.5t-70.5 25.5t-67 11.5q-18 0 -28 -5t-15 -13.5t-6.5 -20t-2.5 -24.5h-155z" />
    <glyph glyph-name="Odieresis" unicode="&#xd6;" 
d="M573 1568q-51 -6 -83 -33.5t-50.5 -68.5t-25 -89.5t-6.5 -96.5v-780q0 -48 6.5 -96.5t24.5 -89t50.5 -68t83.5 -33.5v-246q-137 4 -229 53t-148 130.5t-80 189.5t-24 231v631q0 125 23.5 235t79.5 192.5t148.5 131.5t229.5 54v-247zM623 1815q137 -5 229.5 -54
t149 -131.5t80.5 -192t24 -235.5v-624q0 -123 -24 -232t-80 -191.5t-148.5 -133t-230.5 -54.5v246q52 6 84.5 33t50.5 67.5t24.5 89.5t6.5 97v780q0 48 -6.5 97t-25 89.5t-51 68t-83.5 33.5v247zM239 2249h277v-280h-277v280zM677 2249h277v-280h-277v280z" />
    <glyph glyph-name="multiply" unicode="&#xd7;" horiz-adv-x="794" 
d="M255 649l-193 193l133 134l194 -194l194 194l133 -134l-194 -193q19 -19 43.5 -44t51 -51.5l52.5 -52.5t47 -46l-133 -133l-194 194l-194 -194l-133 133z" />
    <glyph glyph-name="Oslash" unicode="&#xd8;" 
d="M334 -244l-89 20l74 260q-63 37 -106.5 93t-70 125t-38.5 149.5t-12 167.5v631q0 128 25 240t83.5 195t155.5 130.5t242 47.5q48 0 90 -5.5t79 -16.5l-71 -252q-20 14 -43.5 21t-54.5 7q-59 0 -96 -26.5t-58 -68t-28.5 -93t-7.5 -101.5v-787q0 -34 3 -68t10.5 -65.5
t20.5 -59t34 -48.5zM519 222q34 -17 80 -17q60 0 97 26t57.5 67t28 92.5t7.5 102.5l-1 787q0 59 -10.5 117.5t-40.5 102.5l147 523l89 -20l-76 -269q57 -39 97 -95t65 -124t36 -147.5t11 -165.5v-624q0 -125 -25 -236.5t-84 -194.5t-156.5 -131.5t-242.5 -48.5q-41 0 -78 4
t-69 12z" />
    <glyph glyph-name="Ugrave" unicode="&#xd9;" horiz-adv-x="1225" 
d="M640 212q58 3 90.5 29t48.5 75.5t19.5 124t3.5 174.5v1167h316v-1168q0 -84 -6.5 -164t-25.5 -151.5t-52 -131t-86 -103.5t-129 -69.5t-179 -27.5v245zM590 -33q-103 3 -179 28.5t-129.5 69.5t-87.5 104t-53.5 131t-26.5 150.5t-7 163.5v1168h317v-1167q0 -98 5.5 -171
t23 -122.5t50 -76t87.5 -32.5v-246zM706 1880h-211l-366 362h304z" />
    <glyph glyph-name="Uacute" unicode="&#xda;" horiz-adv-x="1225" 
d="M786 2242h304l-366 -362h-211zM640 212q58 3 90.5 29t48.5 75.5t19.5 124t3.5 174.5v1167h316v-1168q0 -84 -6.5 -164t-25.5 -151.5t-52 -131t-86 -103.5t-129 -69.5t-179 -27.5v245zM590 -33q-103 3 -179 28.5t-129.5 69.5t-87.5 104t-53.5 131t-26.5 150.5t-7 163.5
v1168h317v-1167q0 -98 5.5 -171t23 -122.5t50 -76t87.5 -32.5v-246z" />
    <glyph glyph-name="Ucircumflex" unicode="&#xdb;" horiz-adv-x="1225" 
d="M738 1872l-127 208v204h131q70 -110 125 -198q24 -38 47 -74.5t41.5 -66.5t31.5 -49.5t16 -23.5h-265zM169 1872q3 4 15.5 23.5t31.5 49.5t42 66.5t47 74.5q55 88 125 198h131v-204l-127 -208h-265zM640 212q58 3 90.5 29t48.5 75.5t19.5 124t3.5 174.5v1167h316v-1168
q0 -84 -6.5 -164t-25.5 -151.5t-52 -131t-86 -103.5t-129 -69.5t-179 -27.5v245zM590 -33q-103 3 -179 28.5t-129.5 69.5t-87.5 104t-53.5 131t-26.5 150.5t-7 163.5v1168h317v-1167q0 -98 5.5 -171t23 -122.5t50 -76t87.5 -32.5v-246z" />
    <glyph glyph-name="Udieresis" unicode="&#xdc;" horiz-adv-x="1225" 
d="M256 2250h277v-280h-277v280zM694 2250h277v-280h-277v280zM640 212q58 3 90.5 29t48.5 75.5t19.5 124t3.5 174.5v1167h316v-1168q0 -84 -6.5 -164t-25.5 -151.5t-52 -131t-86 -103.5t-129 -69.5t-179 -27.5v245zM590 -33q-103 3 -179 28.5t-129.5 69.5t-87.5 104
t-53.5 131t-26.5 150.5t-7 163.5v1168h317v-1167q0 -98 5.5 -171t23 -122.5t50 -76t87.5 -32.5v-246z" />
    <glyph glyph-name="Yacute" unicode="&#xdd;" horiz-adv-x="1002" 
d="M654 0h-308v581l-344 1201h291l361 -1443v-339zM529 1052l125 730h346l-346 -1236zM671 2242h304l-366 -362h-211z" />
    <glyph glyph-name="Thorn" unicode="&#xde;" horiz-adv-x="1028" 
d="M108 0v1782h317v-1782h-317zM475 1541h65q120 0 203.5 -35.5t136 -101t76 -157.5t23.5 -205q0 -139 -31 -236t-92 -158.5t-151.5 -90t-209.5 -29.5h-20v226h25q61 0 96.5 18t53.5 54t23 91t5 129q0 61 -5.5 110.5t-23.5 84.5t-52.5 53.5t-92.5 18.5h-29v228z" />
    <glyph glyph-name="germandbls" unicode="&#xdf;" horiz-adv-x="1162" 
d="M740 970q81 -23 146.5 -78t112.5 -130.5t72.5 -165.5t25.5 -184q0 -89 -24 -170t-79 -142.5t-143 -97.5t-216 -36l-109 1v220h83q54 0 91.5 20t61.5 54.5t34.5 80t10.5 95.5q0 69 -22 134t-62 117.5t-95 89t-122 48.5v209zM535 1078q45 20 82 58t63.5 84.5t41.5 98
t15 99.5q0 35 -8.5 66t-27 55t-47 38.5t-68.5 17.5l-1 218q106 0 186.5 -33.5t135.5 -89.5t83 -128.5t28 -150.5q0 -56 -15 -112.5t-46 -108.5t-77.5 -97t-109.5 -78zM536 1595q-33 -6 -54.5 -28.5t-34 -54.5t-17 -72.5t-4.5 -82.5v-1357h-319v1354q0 95 27.5 178t81.5 145
t134 98.5t186 38.5v-219z" />
    <glyph glyph-name="agrave" unicode="&#xe0;" horiz-adv-x="1100" 
d="M528 1135l-198 -1135h-305l378 1782h242zM697 1782l378 -1782h-313l-77 399h-232l27 185h182l-86 530zM689 1880h-211l-366 362h304z" />
    <glyph glyph-name="aacute" unicode="&#xe1;" horiz-adv-x="1100" 
d="M528 1135l-198 -1135h-305l378 1782h242zM697 1782l378 -1782h-313l-77 399h-232l27 185h182l-86 530zM720 2242h304l-366 -362h-211z" />
    <glyph glyph-name="acircumflex" unicode="&#xe2;" horiz-adv-x="1100" 
d="M528 1135l-198 -1135h-305l378 1782h242zM697 1782l378 -1782h-313l-77 399h-232l27 185h182l-86 530zM698 1861l-127 208v204h131q70 -110 125 -198q24 -38 47 -74.5t41.5 -66.5t31.5 -49.5t16 -23.5h-265zM129 1861q3 4 15.5 23.5t31.5 49.5t42 66.5t47 74.5
q55 88 125 198h131v-204l-127 -208h-265z" />
    <glyph glyph-name="atilde" unicode="&#xe3;" horiz-adv-x="1100" 
d="M528 1135l-198 -1135h-305l378 1782h242zM697 1782l378 -1782h-313l-77 399h-232l27 185h182l-86 530zM205 1920q0 48 6 97t25.5 88t56 64t97.5 25q42 0 82 -9.5t75.5 -21.5t65.5 -21.5t52 -9.5q27 0 34 14t8 37h147q0 -33 -4 -79.5t-20.5 -90t-49 -74t-89.5 -30.5
q-35 0 -70.5 11.5t-71 25.5t-70.5 25.5t-67 11.5q-18 0 -28 -5t-15 -13.5t-6.5 -20t-2.5 -24.5h-155z" />
    <glyph glyph-name="adieresis" unicode="&#xe4;" horiz-adv-x="1100" 
d="M528 1135l-198 -1135h-305l378 1782h242zM697 1782l378 -1782h-313l-77 399h-232l27 185h182l-86 530zM190 2249h277v-280h-277v280zM628 2249h277v-280h-277v280z" />
    <glyph glyph-name="aring" unicode="&#xe5;" horiz-adv-x="1100" 
d="M528 1135l-198 -1135h-305l378 1782h242zM697 1782l378 -1782h-313l-77 399h-232l27 185h182l-86 530zM506 1896q-49 4 -89.5 22.5t-69 49t-44.5 71.5t-16 90t16 90t44.5 72t69 49.5t89.5 22.5v-113q-19 -6 -32 -19t-21 -30t-11.5 -35.5t-3.5 -35.5t3.5 -35.5t11.5 -35.5
t21 -30.5t32 -19.5v-113zM556 2008q19 5 32.5 18t21.5 30.5t11.5 36.5t3.5 36q0 16 -3.5 35.5t-12 36.5t-21.5 30.5t-32 19.5v112q49 -4 90 -22.5t70.5 -49t45.5 -72t16 -90.5q0 -50 -16 -91t-45 -71.5t-70 -49t-91 -21.5v112z" />
    <glyph glyph-name="ae" unicode="&#xe6;" horiz-adv-x="1516" 
d="M331 0h-306l677 1782h258zM782 0v399h-256l69 195h187v532l232 656h64v-1782h-296zM1128 1782h350v-221h-350v221zM1128 221h350v-221h-350v221zM1128 1035h234v-225h-234v225z" />
    <glyph glyph-name="ccedilla" unicode="&#xe7;" horiz-adv-x="909" 
d="M620 214q48 7 77 37t44.5 75t21 99.5t5.5 109.5v170h309v-137q-2 -116 -23.5 -222.5t-73.5 -189t-139.5 -133.5t-220.5 -56v247zM620 1815q127 -5 214.5 -50.5t141.5 -123t77.5 -182.5t23.5 -227v-136h-310v152q0 53 -5 107t-20.5 99t-44.5 75.5t-77 37.5v248zM570 1568
q-51 -6 -82.5 -33.5t-49.5 -68.5t-24 -89.5t-6 -96.5v-779q0 -48 6 -96.5t24 -89.5t49.5 -68.5t82.5 -33.5v-246q-138 4 -229.5 54.5t-147 133t-78.5 191.5t-23 232v624q0 125 23 235t78.5 192.5t147.5 131.5t229 54v-247zM334 -385h51t68.5 4t60 14t25.5 29q0 21 -17 39.5
t-41 34t-50 27t-43 19.5v93l147 -1q34 -17 70 -39t65.5 -49t48.5 -59.5t19 -69.5q0 -42 -20 -72t-53 -50t-75.5 -32t-87.5 -18t-89 -7.5t-79 -1.5v139z" />
    <glyph glyph-name="egrave" unicode="&#xe8;" horiz-adv-x="871" 
d="M116 0v1782h316v-1782h-316zM482 221h351v-221h-351v221zM482 1782h351v-221h-351v221zM482 1035h235v-225h-235v225zM602 1894h-211l-366 362h304z" />
    <glyph glyph-name="eacute" unicode="&#xe9;" horiz-adv-x="871" 
d="M116 0v1782h316v-1782h-316zM482 221h351v-221h-351v221zM482 1782h351v-221h-351v221zM482 1035h235v-225h-235v225zM633 2256h304l-366 -362h-211z" />
    <glyph glyph-name="ecircumflex" unicode="&#xea;" horiz-adv-x="871" 
d="M116 0v1782h316v-1782h-316zM482 221h351v-221h-351v221zM482 1782h351v-221h-351v221zM482 1035h235v-225h-235v225zM611 1875l-127 208v204h131q70 -110 125 -198q24 -38 47 -74.5t41.5 -66.5t31.5 -49.5t16 -23.5h-265zM42 1875q3 4 15.5 23.5t31.5 49.5t42 66.5
t47 74.5q55 88 125 198h131v-204l-127 -208h-265z" />
    <glyph glyph-name="edieresis" unicode="&#xeb;" horiz-adv-x="871" 
d="M116 0v1782h316v-1782h-316zM482 221h351v-221h-351v221zM482 1782h351v-221h-351v221zM482 1035h235v-225h-235v225zM104 2263h277v-280h-277v280zM542 2263h277v-280h-277v280z" />
    <glyph glyph-name="igrave" unicode="&#xec;" horiz-adv-x="548" 
d="M115 1782h317v-1782h-317v1782zM367 1880h-211l-366 362h304z" />
    <glyph glyph-name="iacute" unicode="&#xed;" horiz-adv-x="548" 
d="M115 1782h317v-1782h-317v1782zM446 2242h304l-366 -362h-211z" />
    <glyph glyph-name="icircumflex" unicode="&#xee;" horiz-adv-x="548" 
d="M115 1782h317v-1782h-317v1782zM399 1872l-127 208v204h131q70 -110 125 -198q24 -38 47 -74.5t41.5 -66.5t31.5 -49.5t16 -23.5h-265zM-170 1872q3 4 15.5 23.5t31.5 49.5t42 66.5t47 74.5q55 88 125 198h131v-204l-127 -208h-265z" />
    <glyph glyph-name="idieresis" unicode="&#xef;" horiz-adv-x="548" 
d="M115 1782h317v-1782h-317v1782zM-83 2250h277v-280h-277v280zM355 2250h277v-280h-277v280z" />
    <glyph glyph-name="eth" unicode="&#xf0;" horiz-adv-x="1150" 
d="M116 0v809h-95v199h95v774h317v-774h141v-199h-141v-809h-317zM483 225h14q71 0 118 10t74.5 34t39 65t11.5 103v925q0 53 -14.5 90t-44.5 60t-76.5 33.5t-110.5 10.5h-11v226h12q168 0 277 -35t172 -105.5t87.5 -177t24.5 -249.5v-615q0 -97 -8.5 -179t-31.5 -149
t-63 -117.5t-102.5 -85t-151 -52t-207.5 -17.5h-9v225z" />
    <glyph glyph-name="ntilde" unicode="&#xf1;" horiz-adv-x="1183" 
d="M345 1783l43 -104v-1679h-272v1783h229zM804 105v1678h263v-1783h-221zM438 1558l316 -690v-637l-316 718v609zM253 1920q0 48 6 97t25.5 88t56 64t97.5 25q42 0 82 -9.5t75.5 -21.5t65.5 -21.5t52 -9.5q27 0 34 14t8 37h147q0 -33 -4 -79.5t-20.5 -90t-49 -74
t-89.5 -30.5q-35 0 -70.5 11.5t-71 25.5t-70.5 25.5t-67 11.5q-18 0 -28 -5t-15 -13.5t-6.5 -20t-2.5 -24.5h-155z" />
    <glyph glyph-name="ograve" unicode="&#xf2;" 
d="M573 1568q-51 -6 -83 -33.5t-50.5 -68.5t-25 -89.5t-6.5 -96.5v-780q0 -48 6.5 -96.5t24.5 -89t50.5 -68t83.5 -33.5v-246q-137 4 -229 53t-148 130.5t-80 189.5t-24 231v631q0 125 23.5 235t79.5 192.5t148.5 131.5t229.5 54v-247zM623 1815q137 -5 229.5 -54
t149 -131.5t80.5 -192t24 -235.5v-624q0 -123 -24 -232t-80 -191.5t-148.5 -133t-230.5 -54.5v246q52 6 84.5 33t50.5 67.5t24.5 89.5t6.5 97v780q0 48 -6.5 97t-25 89.5t-51 68t-83.5 33.5v247zM738 1880h-211l-366 362h304z" />
    <glyph glyph-name="oacute" unicode="&#xf3;" 
d="M573 1568q-51 -6 -83 -33.5t-50.5 -68.5t-25 -89.5t-6.5 -96.5v-780q0 -48 6.5 -96.5t24.5 -89t50.5 -68t83.5 -33.5v-246q-137 4 -229 53t-148 130.5t-80 189.5t-24 231v631q0 125 23.5 235t79.5 192.5t148.5 131.5t229.5 54v-247zM623 1815q137 -5 229.5 -54
t149 -131.5t80.5 -192t24 -235.5v-624q0 -123 -24 -232t-80 -191.5t-148.5 -133t-230.5 -54.5v246q52 6 84.5 33t50.5 67.5t24.5 89.5t6.5 97v780q0 48 -6.5 97t-25 89.5t-51 68t-83.5 33.5v247zM769 2242h304l-366 -362h-211z" />
    <glyph glyph-name="ocircumflex" unicode="&#xf4;" 
d="M573 1568q-51 -6 -83 -33.5t-50.5 -68.5t-25 -89.5t-6.5 -96.5v-780q0 -48 6.5 -96.5t24.5 -89t50.5 -68t83.5 -33.5v-246q-137 4 -229 53t-148 130.5t-80 189.5t-24 231v631q0 125 23.5 235t79.5 192.5t148.5 131.5t229.5 54v-247zM623 1815q137 -5 229.5 -54
t149 -131.5t80.5 -192t24 -235.5v-624q0 -123 -24 -232t-80 -191.5t-148.5 -133t-230.5 -54.5v246q52 6 84.5 33t50.5 67.5t24.5 89.5t6.5 97v780q0 48 -6.5 97t-25 89.5t-51 68t-83.5 33.5v247zM747 1861l-127 208v204h131q70 -110 125 -198q24 -38 47 -74.5t41.5 -66.5
t31.5 -49.5t16 -23.5h-265zM178 1861q3 4 15.5 23.5t31.5 49.5t42 66.5t47 74.5q55 88 125 198h131v-204l-127 -208h-265z" />
    <glyph glyph-name="otilde" unicode="&#xf5;" 
d="M573 1568q-51 -6 -83 -33.5t-50.5 -68.5t-25 -89.5t-6.5 -96.5v-780q0 -48 6.5 -96.5t24.5 -89t50.5 -68t83.5 -33.5v-246q-137 4 -229 53t-148 130.5t-80 189.5t-24 231v631q0 125 23.5 235t79.5 192.5t148.5 131.5t229.5 54v-247zM623 1815q137 -5 229.5 -54
t149 -131.5t80.5 -192t24 -235.5v-624q0 -123 -24 -232t-80 -191.5t-148.5 -133t-230.5 -54.5v246q52 6 84.5 33t50.5 67.5t24.5 89.5t6.5 97v780q0 48 -6.5 97t-25 89.5t-51 68t-83.5 33.5v247zM254 1920q0 48 6 97t25.5 88t56 64t97.5 25q42 0 82 -9.5t75.5 -21.5
t65.5 -21.5t52 -9.5q27 0 34 14t8 37h147q0 -33 -4 -79.5t-20.5 -90t-49 -74t-89.5 -30.5q-35 0 -70.5 11.5t-71 25.5t-70.5 25.5t-67 11.5q-18 0 -28 -5t-15 -13.5t-6.5 -20t-2.5 -24.5h-155z" />
    <glyph glyph-name="odieresis" unicode="&#xf6;" 
d="M573 1568q-51 -6 -83 -33.5t-50.5 -68.5t-25 -89.5t-6.5 -96.5v-780q0 -48 6.5 -96.5t24.5 -89t50.5 -68t83.5 -33.5v-246q-137 4 -229 53t-148 130.5t-80 189.5t-24 231v631q0 125 23.5 235t79.5 192.5t148.5 131.5t229.5 54v-247zM623 1815q137 -5 229.5 -54
t149 -131.5t80.5 -192t24 -235.5v-624q0 -123 -24 -232t-80 -191.5t-148.5 -133t-230.5 -54.5v246q52 6 84.5 33t50.5 67.5t24.5 89.5t6.5 97v780q0 48 -6.5 97t-25 89.5t-51 68t-83.5 33.5v247zM239 2249h277v-280h-277v280zM677 2249h277v-280h-277v280z" />
    <glyph glyph-name="divide" unicode="&#xf7;" horiz-adv-x="691" 
d="M12 780h652v-199h-652v199zM206 1150h264v-262h-264v262zM206 498h264v-263h-264v263z" />
    <glyph glyph-name="oslash" unicode="&#xf8;" 
d="M334 -244l-89 20l74 260q-63 37 -106.5 93t-70 125t-38.5 149.5t-12 167.5v631q0 128 25 240t83.5 195t155.5 130.5t242 47.5q48 0 90 -5.5t79 -16.5l-71 -252q-20 14 -43.5 21t-54.5 7q-59 0 -96 -26.5t-58 -68t-28.5 -93t-7.5 -101.5v-787q0 -34 3 -68t10.5 -65.5
t20.5 -59t34 -48.5zM519 222q34 -17 80 -17q60 0 97 26t57.5 67t28 92.5t7.5 102.5l-1 787q0 59 -10.5 117.5t-40.5 102.5l147 523l89 -20l-76 -269q57 -39 97 -95t65 -124t36 -147.5t11 -165.5v-624q0 -125 -25 -236.5t-84 -194.5t-156.5 -131.5t-242.5 -48.5q-41 0 -78 4
t-69 12z" />
    <glyph glyph-name="ugrave" unicode="&#xf9;" horiz-adv-x="1223" 
d="M639 212q58 3 90.5 29t48.5 75.5t19.5 124t3.5 174.5v1167h316v-1168q0 -84 -6.5 -164t-25.5 -151.5t-52 -131t-86 -103.5t-129 -69.5t-179 -27.5v245zM589 -33q-103 3 -179 28.5t-129.5 69.5t-87.5 104t-53.5 131t-26.5 150.5t-7 163.5v1168h317v-1167q0 -98 5.5 -171
t23 -122.5t50 -76t87.5 -32.5v-246zM754 1880h-211l-366 362h304z" />
    <glyph glyph-name="uacute" unicode="&#xfa;" horiz-adv-x="1223" 
d="M639 212q58 3 90.5 29t48.5 75.5t19.5 124t3.5 174.5v1167h316v-1168q0 -84 -6.5 -164t-25.5 -151.5t-52 -131t-86 -103.5t-129 -69.5t-179 -27.5v245zM589 -33q-103 3 -179 28.5t-129.5 69.5t-87.5 104t-53.5 131t-26.5 150.5t-7 163.5v1168h317v-1167q0 -98 5.5 -171
t23 -122.5t50 -76t87.5 -32.5v-246zM785 2242h304l-366 -362h-211z" />
    <glyph glyph-name="ucircumflex" unicode="&#xfb;" horiz-adv-x="1223" 
d="M639 212q58 3 90.5 29t48.5 75.5t19.5 124t3.5 174.5v1167h316v-1168q0 -84 -6.5 -164t-25.5 -151.5t-52 -131t-86 -103.5t-129 -69.5t-179 -27.5v245zM589 -33q-103 3 -179 28.5t-129.5 69.5t-87.5 104t-53.5 131t-26.5 150.5t-7 163.5v1168h317v-1167q0 -98 5.5 -171
t23 -122.5t50 -76t87.5 -32.5v-246zM737 1871l-127 208v204h131q70 -110 125 -198q24 -38 47 -74.5t41.5 -66.5t31.5 -49.5t16 -23.5h-265zM168 1871q3 4 15.5 23.5t31.5 49.5t42 66.5t47 74.5q55 88 125 198h131v-204l-127 -208h-265z" />
    <glyph glyph-name="udieresis" unicode="&#xfc;" horiz-adv-x="1223" 
d="M639 212q58 3 90.5 29t48.5 75.5t19.5 124t3.5 174.5v1167h316v-1168q0 -84 -6.5 -164t-25.5 -151.5t-52 -131t-86 -103.5t-129 -69.5t-179 -27.5v245zM589 -33q-103 3 -179 28.5t-129.5 69.5t-87.5 104t-53.5 131t-26.5 150.5t-7 163.5v1168h317v-1167q0 -98 5.5 -171
t23 -122.5t50 -76t87.5 -32.5v-246zM255 2249h277v-280h-277v280zM693 2249h277v-280h-277v280z" />
    <glyph glyph-name="yacute" unicode="&#xfd;" horiz-adv-x="1002" 
d="M654 0h-308v581l-344 1201h291l361 -1443v-339zM529 1052l125 730h346l-346 -1236zM671 2242h304l-366 -362h-211z" />
    <glyph glyph-name="thorn" unicode="&#xfe;" horiz-adv-x="1028" 
d="M108 0v1782h317v-1782h-317zM475 1541h65q120 0 203.5 -35.5t136 -101t76 -157.5t23.5 -205q0 -139 -31 -236t-92 -158.5t-151.5 -90t-209.5 -29.5h-20v226h25q61 0 96.5 18t53.5 54t23 91t5 129q0 61 -5.5 110.5t-23.5 84.5t-52.5 53.5t-92.5 18.5h-29v228z" />
    <glyph glyph-name="ydieresis" unicode="&#xff;" horiz-adv-x="1002" 
d="M654 0h-308v581l-344 1201h291l361 -1443v-339zM529 1052l125 730h346l-346 -1236zM141 2249h277v-280h-277v280zM579 2249h277v-280h-277v280z" />
    <glyph glyph-name="Ccircumflex" unicode="&#x108;" horiz-adv-x="1152" 
d="M620 214q48 7 77 37t44.5 75t21 99.5t5.5 109.5v170h309v-137q-2 -116 -23.5 -222.5t-73.5 -189t-139.5 -133.5t-220.5 -56v247zM620 1815q127 -5 214.5 -50.5t141.5 -123t77.5 -182.5t23.5 -227v-136h-310v152q0 53 -5 107t-20.5 99t-44.5 75.5t-77 37.5v248zM570 1568
q-51 -6 -82.5 -33.5t-49.5 -68.5t-24 -89.5t-6 -96.5v-779q0 -48 6 -96.5t24 -89.5t49.5 -68.5t82.5 -33.5v-246q-138 4 -229.5 54.5t-147 133t-78.5 191.5t-23 232v624q0 125 23 235t78.5 192.5t147.5 131.5t229 54v-247zM742 1861l-127 208v204h131q70 -110 125 -198
q24 -38 47 -74.5t41.5 -66.5t31.5 -49.5t16 -23.5h-265zM173 1861q3 4 15.5 23.5t31.5 49.5t42 66.5t47 74.5q55 88 125 198h131v-204l-127 -208h-265z" />
    <glyph glyph-name="ccircumflex" unicode="&#x109;" horiz-adv-x="1152" 
d="M620 214q48 7 77 37t44.5 75t21 99.5t5.5 109.5v170h309v-137q-2 -116 -23.5 -222.5t-73.5 -189t-139.5 -133.5t-220.5 -56v247zM620 1815q127 -5 214.5 -50.5t141.5 -123t77.5 -182.5t23.5 -227v-136h-310v152q0 53 -5 107t-20.5 99t-44.5 75.5t-77 37.5v248zM570 1568
q-51 -6 -82.5 -33.5t-49.5 -68.5t-24 -89.5t-6 -96.5v-779q0 -48 6 -96.5t24 -89.5t49.5 -68.5t82.5 -33.5v-246q-138 4 -229.5 54.5t-147 133t-78.5 191.5t-23 232v624q0 125 23 235t78.5 192.5t147.5 131.5t229 54v-247zM742 1861l-127 208v204h131q70 -110 125 -198
q24 -38 47 -74.5t41.5 -66.5t31.5 -49.5t16 -23.5h-265zM173 1861q3 4 15.5 23.5t31.5 49.5t42 66.5t47 74.5q55 88 125 198h131v-204l-127 -208h-265z" />
    <glyph glyph-name="Hbar" unicode="&#x126;" horiz-adv-x="1170" 
d="M473 1444h271v338h319v-1782h-319v810h-271v225h271v299h-271v110zM107 0v1782h316v-1782h-316z" />
    <glyph glyph-name="hbar" unicode="&#x127;" horiz-adv-x="1170" 
d="M473 1444h271v338h319v-1782h-319v810h-271v225h271v299h-271v110zM107 0v1782h316v-1782h-316z" />
    <glyph glyph-name="Itilde" unicode="&#x128;" horiz-adv-x="548" 
d="M115 1782h317v-1782h-317v1782zM-68 1920q0 48 6 97t25.5 88t56 64t97.5 25q42 0 82 -9.5t75.5 -21.5t65.5 -21.5t52 -9.5q27 0 34 14t8 37h147q0 -33 -4 -79.5t-20.5 -90t-49 -74t-89.5 -30.5q-35 0 -70.5 11.5t-71 25.5t-70.5 25.5t-67 11.5q-18 0 -28 -5t-15 -13.5
t-6.5 -20t-2.5 -24.5h-155z" />
    <glyph glyph-name="itilde" unicode="&#x129;" horiz-adv-x="548" 
d="M115 1782h317v-1782h-317v1782zM-68 1920q0 48 6 97t25.5 88t56 64t97.5 25q42 0 82 -9.5t75.5 -21.5t65.5 -21.5t52 -9.5q27 0 34 14t8 37h147q0 -33 -4 -79.5t-20.5 -90t-49 -74t-89.5 -30.5q-35 0 -70.5 11.5t-71 25.5t-70.5 25.5t-67 11.5q-18 0 -28 -5t-15 -13.5
t-6.5 -20t-2.5 -24.5h-155z" />
    <glyph glyph-name="Iogonek" unicode="&#x12e;" horiz-adv-x="548" 
d="M115 1782h317v-1782h-317v1782zM416 -100q-23 -48 -42 -96t-19 -102q0 -41 17.5 -63t45.5 -32t62 -11.5t67 -1.5l-16 -140q-10 0 -19.5 -0.5t-19.5 -0.5q-60 0 -119.5 6.5t-107 28t-77.5 62t-30 108.5q0 32 9 64.5t23.5 63.5t33.5 60t40 54h152z" />
    <glyph glyph-name="iogonek" unicode="&#x12f;" horiz-adv-x="572" 
d="M117 1782h317v-1782h-317v1782zM419 -95q-23 -48 -42 -96t-19 -102q0 -41 17.5 -63t45.5 -32t62 -11.5t67 -1.5l-16 -140q-10 0 -19.5 -0.5t-19.5 -0.5q-60 0 -119.5 6.5t-107 28t-77.5 62t-30 108.5q0 32 9 64.5t23.5 63.5t33.5 60t40 54h152z" />
    <glyph glyph-name="Idotaccent" unicode="&#x130;" horiz-adv-x="444" 
d="M115 1782h317v-1782h-317v1782zM152 2283h292v-287h-292v287z" />
    <glyph glyph-name="dotlessi" unicode="&#x131;" horiz-adv-x="548" 
d="M115 1782h317v-1782h-317v1782z" />
    <glyph glyph-name="IJ" unicode="&#x132;" horiz-adv-x="1200" 
d="M115 1782h317v-1782h-317v1782zM604 198q55 0 89.5 7.5t54 32t27 70t7.5 121.5v1353h316v-1355q0 -114 -14 -199t-57 -141.5t-121 -84.5t-206 -28h-96v224z" />
    <glyph glyph-name="ij" unicode="&#x133;" horiz-adv-x="980" 
d="M117 1782h317v-1782h-317v1782zM530 198q55 0 89.5 7.5t54 32t27 70t7.5 121.5v1353h316v-1355q0 -114 -14 -199t-57 -141.5t-121 -84.5t-206 -28h-96v224z" />
    <glyph glyph-name="Jcircumflex" unicode="&#x134;" horiz-adv-x="612" 
d="M3 198q55 0 89.5 7.5t54 32t27 70t7.5 121.5v1353h316v-1355q0 -114 -14 -199t-57 -141.5t-121 -84.5t-206 -28h-96v224zM488 1861l-127 208v204h131q70 -110 125 -198q24 -38 47 -74.5t41.5 -66.5t31.5 -49.5t16 -23.5h-265zM-81 1861q3 4 15.5 23.5t31.5 49.5t42 66.5
t47 74.5q55 88 125 198h131v-204l-127 -208h-265z" />
    <glyph glyph-name="jcircumflex" unicode="&#x135;" horiz-adv-x="612" 
d="M3 198q55 0 89.5 7.5t54 32t27 70t7.5 121.5v1353h316v-1355q0 -114 -14 -199t-57 -141.5t-121 -84.5t-206 -28h-96v224zM488 1861l-127 208v204h131q70 -110 125 -198q24 -38 47 -74.5t41.5 -66.5t31.5 -49.5t16 -23.5h-265zM-81 1861q3 4 15.5 23.5t31.5 49.5t42 66.5
t47 74.5q55 88 125 198h131v-204l-127 -208h-265z" />
    <glyph glyph-name="kcommaaccent" unicode="&#x137;" horiz-adv-x="1147" 
d="M482 1094l272 688h351l-364 -801l403 -981h-329l-333 857v237zM116 0v1782h316v-1782h-316zM455 -472q28 3 45 9t26 18t12 30.5t3 47.5h-114v287h292q0 -36 0.5 -70.5t0.5 -66.5q0 -91 -6.5 -164t-30 -124t-69 -79t-122.5 -29z" />
    <glyph glyph-name="kgreenlandic" unicode="&#x138;" horiz-adv-x="1147" 
d="M482 1094l272 688h351l-364 -801l403 -981h-329l-333 857v237zM116 0v1782h316v-1782h-316z" />
    <glyph glyph-name="Ldotaccent" unicode="&#x13f;" horiz-adv-x="953" 
d="M116 0v1782h316v-1782h-316zM482 221h336v-221h-336v221zM590 969h292v-284h-292v284z" />
    <glyph glyph-name="ldot" unicode="&#x140;" horiz-adv-x="953" 
d="M116 0v1782h316v-1782h-316zM482 221h336v-221h-336v221zM590 969h292v-284h-292v284z" />
    <glyph glyph-name="Lslash" unicode="&#x141;" horiz-adv-x="849" 
d="M116 0v881l-95 -36v168l95 36v733h317v-614l256 97v-168l-256 -97v-1000h-317zM483 221h335v-221h-335v221z" />
    <glyph glyph-name="lslash" unicode="&#x142;" horiz-adv-x="849" 
d="M116 0v881l-95 -36v168l95 36v733h317v-614l256 97v-168l-256 -97v-1000h-317zM483 221h335v-221h-335v221z" />
    <glyph glyph-name="Nacute" unicode="&#x143;" horiz-adv-x="1183" 
d="M345 1783l43 -104v-1679h-272v1783h229zM804 105v1678h263v-1783h-221zM438 1558l316 -690v-637l-316 718v609zM768 2242h304l-366 -362h-211z" />
    <glyph glyph-name="nacute" unicode="&#x144;" horiz-adv-x="1183" 
d="M345 1783l43 -104v-1679h-272v1783h229zM804 105v1678h263v-1783h-221zM438 1558l316 -690v-637l-316 718v609zM768 2242h304l-366 -362h-211z" />
    <glyph glyph-name="OE" unicode="&#x152;" horiz-adv-x="1543" 
d="M738 0h-140q-144 0 -241.5 44t-156.5 122t-84 185t-25 233v605q0 122 25 230t83.5 188.5t156 127.5t242.5 47h140v-231h-140q-59 0 -96 -26t-58 -67t-28.5 -91.5t-7.5 -99.5v-761q0 -49 7.5 -99t28.5 -90.5t58 -66.5t96 -26h140v-224zM788 0v1782h317v-747h284v-225h-284
v-810h-317zM1155 1782h350v-221h-350v221zM1155 221h350v-221h-350v221z" />
    <glyph glyph-name="oe" unicode="&#x153;" horiz-adv-x="1543" 
d="M738 0h-140q-144 0 -241.5 44t-156.5 122t-84 185t-25 233v605q0 122 25 230t83.5 188.5t156 127.5t242.5 47h140v-231h-140q-59 0 -96 -26t-58 -67t-28.5 -91.5t-7.5 -99.5v-761q0 -49 7.5 -99t28.5 -90.5t58 -66.5t96 -26h140v-224zM788 0v1782h317v-747h284v-225h-284
v-810h-317zM1155 1782h350v-221h-350v221zM1155 221h350v-221h-350v221z" />
    <glyph glyph-name="Racute" unicode="&#x154;" horiz-adv-x="1119" 
d="M482 1031h99q51 0 82 28.5t48 69.5t22.5 86t5.5 78q0 34 -5 78t-20.5 83.5t-44 66.5t-74.5 27h-113v234h44q126 0 224.5 -27.5t166 -84.5t102.5 -145t35 -210q0 -61 -5 -124t-26.5 -121.5t-66.5 -109t-126 -86.5l253 -874h-323l-207 831h-71v200zM116 0v1782h316v-1782
h-316zM683 2242h304l-366 -362h-211z" />
    <glyph glyph-name="Rcommaaccent" unicode="&#x156;" horiz-adv-x="1122" 
d="M441 -472q28 3 45 9t26 18t12 30.5t3 47.5h-114v287h292q0 -36 0.5 -70.5t0.5 -66.5q0 -91 -6.5 -164t-30 -124t-69 -79t-122.5 -29zM482 1031h99q51 0 82 28.5t48 69.5t22.5 86t5.5 78q0 34 -5 78t-20.5 83.5t-44 66.5t-74.5 27h-113v234h44q126 0 224.5 -27.5
t166 -84.5t102.5 -145t35 -210q0 -61 -5 -124t-26.5 -121.5t-66.5 -109t-126 -86.5l253 -874h-323l-207 831h-71v200zM116 0v1782h316v-1782h-316z" />
    <glyph glyph-name="rcommaaccent" unicode="&#x157;" horiz-adv-x="1122" 
d="M441 -472q28 3 45 9t26 18t12 30.5t3 47.5h-114v287h292q0 -36 0.5 -70.5t0.5 -66.5q0 -91 -6.5 -164t-30 -124t-69 -79t-122.5 -29zM482 1031h99q51 0 82 28.5t48 69.5t22.5 86t5.5 78q0 34 -5 78t-20.5 83.5t-44 66.5t-74.5 27h-113v234h44q126 0 224.5 -27.5
t166 -84.5t102.5 -145t35 -210q0 -61 -5 -124t-26.5 -121.5t-66.5 -109t-126 -86.5l253 -874h-323l-207 831h-71v200zM116 0v1782h316v-1782h-316z" />
    <glyph glyph-name="Rcaron" unicode="&#x158;" horiz-adv-x="1119" 
d="M482 1031h99q51 0 82 28.5t48 69.5t22.5 86t5.5 78q0 34 -5 78t-20.5 83.5t-44 66.5t-74.5 27h-113v234h44q126 0 224.5 -27.5t166 -84.5t102.5 -145t35 -210q0 -61 -5 -124t-26.5 -121.5t-66.5 -109t-126 -86.5l253 -874h-323l-207 831h-71v200zM116 0v1782h316v-1782
h-316zM357 2273l127 -208v-204h-131q-70 110 -125 198q-24 37 -47 74t-42 66.5t-31.5 49.5t-15.5 24h265zM926 2273q-3 -4 -16 -24t-31.5 -49.5t-41.5 -66.5t-47 -74q-55 -88 -125 -198h-131v204l127 208h265z" />
    <glyph glyph-name="rcaron" unicode="&#x159;" horiz-adv-x="1119" 
d="M482 1031h99q51 0 82 28.5t48 69.5t22.5 86t5.5 78q0 34 -5 78t-20.5 83.5t-44 66.5t-74.5 27h-113v234h44q126 0 224.5 -27.5t166 -84.5t102.5 -145t35 -210q0 -61 -5 -124t-26.5 -121.5t-66.5 -109t-126 -86.5l253 -874h-323l-207 831h-71v200zM116 0v1782h316v-1782
h-316zM357 2273l127 -208v-204h-131q-70 110 -125 198q-24 37 -47 74t-42 66.5t-31.5 49.5t-15.5 24h265zM926 2273q-3 -4 -16 -24t-31.5 -49.5t-41.5 -66.5t-47 -74q-55 -88 -125 -198h-131v204l127 208h265z" />
    <glyph glyph-name="Scaron" unicode="&#x160;" horiz-adv-x="1018" 
d="M452 2304l127 -208v-204h-131q-70 110 -125 198q-24 37 -47 74t-42 66.5t-31.5 49.5t-15.5 24h265zM1021 2304q-3 -4 -16 -24t-31.5 -49.5t-41.5 -66.5t-47 -74q-55 -88 -125 -198h-131v204l127 208h265zM556 1816q92 -2 170.5 -36.5t136.5 -93.5t92.5 -139.5
t38.5 -173.5v-37l-321 -50q0 14 1 29t1 31q-2 34 -9 70t-20.5 67t-35.5 54t-54 32v247zM519 -34q-114 6 -197 52t-139 119t-85.5 165t-36.5 191l317 64q2 -56 8.5 -112.5t22 -104t42 -81.5t68.5 -45v-248zM400 824l-72 68q-50 44 -97.5 91t-85 103t-60 124.5t-22.5 154.5
q0 100 32 180.5t90.5 138.5t140 91.5t180.5 39.5v-243q-33 -3 -58 -18.5t-41.5 -38.5t-24.5 -53t-8 -63q0 -45 11.5 -84t32 -73t48 -64.5t59.5 -58.5q14 -13 38 -35.5t50 -46.5zM648 1002l37 -33q65 -60 122.5 -122.5t100 -132.5t67.5 -151t25 -178q0 -94 -34 -170
t-92.5 -130.5t-137 -85.5t-167.5 -34v244q34 2 57.5 15t38.5 35t21.5 50.5t6.5 62.5q0 56 -18.5 108.5t-49 100.5t-69.5 91.5t-80 81.5l-40 37z" />
    <glyph glyph-name="scaron" unicode="&#x161;" horiz-adv-x="1054" 
d="M557 1816q92 -2 170.5 -36.5t136.5 -93.5t92.5 -139.5t38.5 -173.5v-37l-321 -50q0 14 1 29t1 31q-2 34 -9 70t-20.5 67t-35.5 54t-54 32v247zM520 -34q-114 6 -197 52t-139 119t-85.5 165t-36.5 191l317 64q2 -56 8.5 -112.5t22 -104t42 -81.5t68.5 -45v-248zM401 824
l-72 68q-50 44 -97.5 91t-85 103t-60 124.5t-22.5 154.5q0 100 32 180.5t90.5 138.5t140 91.5t180.5 39.5v-243q-33 -3 -58 -18.5t-41.5 -38.5t-24.5 -53t-8 -63q0 -45 11.5 -84t32 -73t48 -64.5t59.5 -58.5q14 -13 38 -35.5t50 -46.5zM649 1002l37 -33q65 -60 122.5 -122.5
t100 -132.5t67.5 -151t25 -178q0 -94 -34 -170t-92.5 -130.5t-137 -85.5t-167.5 -34v244q34 2 57.5 15t38.5 35t21.5 50.5t6.5 62.5q0 56 -18.5 108.5t-49 100.5t-69.5 91.5t-80 81.5l-40 37zM376 2272l127 -208v-204h-131q-70 110 -125 198q-24 37 -47 74t-42 66.5
t-31.5 49.5t-15.5 24h265zM945 2272q-3 -4 -16 -24t-31.5 -49.5t-41.5 -66.5t-47 -74q-55 -88 -125 -198h-131v204l127 208h265z" />
    <glyph glyph-name="Umacron" unicode="&#x16a;" horiz-adv-x="1223" 
d="M639 212q58 3 90.5 29t48.5 75.5t19.5 124t3.5 174.5v1167h316v-1168q0 -84 -6.5 -164t-25.5 -151.5t-52 -131t-86 -103.5t-129 -69.5t-179 -27.5v245zM589 -33q-103 3 -179 28.5t-129.5 69.5t-87.5 104t-53.5 131t-26.5 150.5t-7 163.5v1168h317v-1167q0 -98 5.5 -171
t23 -122.5t50 -76t87.5 -32.5v-246zM365 2117h493v-176h-493v176z" />
    <glyph glyph-name="umacron" unicode="&#x16b;" horiz-adv-x="1223" 
d="M639 212q58 3 90.5 29t48.5 75.5t19.5 124t3.5 174.5v1167h316v-1168q0 -84 -6.5 -164t-25.5 -151.5t-52 -131t-86 -103.5t-129 -69.5t-179 -27.5v245zM589 -33q-103 3 -179 28.5t-129.5 69.5t-87.5 104t-53.5 131t-26.5 150.5t-7 163.5v1168h317v-1167q0 -98 5.5 -171
t23 -122.5t50 -76t87.5 -32.5v-246zM365 2117h493v-176h-493v176z" />
    <glyph glyph-name="Uogonek" unicode="&#x172;" horiz-adv-x="1223" 
d="M639 212q58 3 90.5 29t48.5 75.5t19.5 124t3.5 174.5v1167h316v-1168q0 -84 -6.5 -164t-25.5 -151.5t-52 -131t-86 -103.5t-129 -69.5t-179 -27.5v245zM589 -33q-103 3 -179 28.5t-129.5 69.5t-87.5 104t-53.5 131t-26.5 150.5t-7 163.5v1168h317v-1167q0 -98 5.5 -171
t23 -122.5t50 -76t87.5 -32.5v-246zM720 -100q-23 -48 -42 -96t-19 -102q0 -41 17.5 -63t45.5 -32t62 -11.5t67 -1.5l-16 -140q-10 0 -19.5 -0.5t-19.5 -0.5q-60 0 -119.5 6.5t-107 28t-77.5 62t-30 108.5q0 32 9 64.5t23.5 63.5t33.5 60t40 54h152z" />
    <glyph glyph-name="uogonek" unicode="&#x173;" horiz-adv-x="1223" 
d="M639 212q58 3 90.5 29t48.5 75.5t19.5 124t3.5 174.5v1167h316v-1168q0 -84 -6.5 -164t-25.5 -151.5t-52 -131t-86 -103.5t-129 -69.5t-179 -27.5v245zM589 -33q-103 3 -179 28.5t-129.5 69.5t-87.5 104t-53.5 131t-26.5 150.5t-7 163.5v1168h317v-1167q0 -98 5.5 -171
t23 -122.5t50 -76t87.5 -32.5v-246zM720 -100q-23 -48 -42 -96t-19 -102q0 -41 17.5 -63t45.5 -32t62 -11.5t67 -1.5l-16 -140q-10 0 -19.5 -0.5t-19.5 -0.5q-60 0 -119.5 6.5t-107 28t-77.5 62t-30 108.5q0 32 9 64.5t23.5 63.5t33.5 60t40 54h152z" />
    <glyph glyph-name="Ydieresis" unicode="&#x178;" horiz-adv-x="1002" 
d="M654 0h-308v581l-344 1201h291l361 -1443v-339zM529 1052l125 730h346l-346 -1236zM141 2249h277v-280h-277v280zM579 2249h277v-280h-277v280z" />
    <glyph glyph-name="Zdotaccent" unicode="&#x17b;" horiz-adv-x="975" 
d="M441 221h452v-221h-536zM527 1560h-393v222h477zM665 1782h228v-210l-589 -1572h-227v219zM341 2260h292v-287h-292v287z" />
    <glyph glyph-name="zdotaccent" unicode="&#x17c;" horiz-adv-x="975" 
d="M441 221h452v-221h-536zM527 1560h-393v222h477zM665 1782h228v-210l-589 -1572h-227v219zM341 2260h292v-287h-292v287z" />
    <glyph glyph-name="Zcaron" unicode="&#x17d;" horiz-adv-x="975" 
d="M441 221h452v-221h-536zM527 1560h-393v222h477zM665 1782h228v-210l-589 -1572h-227v219zM335 2283l127 -208v-204h-131q-70 110 -125 198q-24 37 -47 74t-42 66.5t-31.5 49.5t-15.5 24h265zM904 2283q-3 -4 -16 -24t-31.5 -49.5t-41.5 -66.5t-47 -74q-55 -88 -125 -198
h-131v204l127 208h265z" />
    <glyph glyph-name="zcaron" unicode="&#x17e;" horiz-adv-x="975" 
d="M441 221h452v-221h-536zM527 1560h-393v222h477zM665 1782h228v-210l-589 -1572h-227v219zM335 2283l127 -208v-204h-131q-70 110 -125 198q-24 37 -47 74t-42 66.5t-31.5 49.5t-15.5 24h265zM904 2283q-3 -4 -16 -24t-31.5 -49.5t-41.5 -66.5t-47 -74q-55 -88 -125 -198
h-131v204l127 208h265z" />
    <glyph glyph-name="florin" unicode="&#x192;" horiz-adv-x="571" 
d="M-14 -272q4 -1 14.5 -2t22 -2t22 -1.5t15.5 -0.5q45 0 68.5 14.5t34 37.5t11.5 51t1 55v1234h-167v84h167v169q0 41 5 90.5t26.5 93t65 72.5t120.5 29q31 0 62.5 -3t59.5 -10v-109q-5 1 -15 2t-21.5 2t-22 1.5t-15.5 0.5q-45 0 -68.5 -14.5t-34 -37.5t-11.5 -51t-1 -55
v-180h192v-84h-192v-1224q0 -41 -5 -90.5t-26.5 -92.5t-65 -72t-120.5 -29q-31 0 -62.5 3t-59.5 10v109z" />
    <glyph glyph-name="Dz" unicode="&#x1f2;" horiz-adv-x="1918" 
d="M1531 221h452v-221h-536zM1617 1560h-393v222h477zM1755 1782h228v-210l-589 -1572h-227v219zM482 225h9q73 0 121 9.5t76 33.5t39.5 65t11.5 104v925q0 53 -14 90t-44 60t-76 33.5t-109 10.5h-14v226h12q168 0 277 -35t172.5 -105.5t88 -177t24.5 -249.5v-615
q0 -97 -8.5 -179t-31.5 -149t-63 -117.5t-102.5 -85t-151 -52t-208.5 -17.5h-9v225zM116 0v1782h316v-1782h-316z" />
    <glyph glyph-name="uni020B" unicode="&#x20b;" horiz-adv-x="548" 
d="M115 1782h317v-1782h-317v1782zM20 1910q1 61 21.5 108.5t56 79.5t82 48.5t98.5 16.5t98.5 -16.5t82 -48.5t56 -79.5t21.5 -108.5h-158q-2 26 -9 50t-19 43t-30 30t-42 11t-42 -11t-30 -30t-19 -43t-9 -50h-158z" />
    <glyph glyph-name="uni020C" unicode="&#x20c;" 
d="M573 1568q-51 -6 -83 -33.5t-50.5 -68.5t-25 -89.5t-6.5 -96.5v-780q0 -48 6.5 -96.5t24.5 -89t50.5 -68t83.5 -33.5v-246q-137 4 -229 53t-148 130.5t-80 189.5t-24 231v631q0 125 23.5 235t79.5 192.5t148.5 131.5t229.5 54v-247zM623 1815q137 -5 229.5 -54
t149 -131.5t80.5 -192t24 -235.5v-624q0 -123 -24 -232t-80 -191.5t-148.5 -133t-230.5 -54.5v246q52 6 84.5 33t50.5 67.5t24.5 89.5t6.5 97v780q0 48 -6.5 97t-25 89.5t-51 68t-83.5 33.5v247zM491 2321h255l130 -413h-172zM192 2321h257l130 -413h-174z" />
    <glyph glyph-name="uni020D" unicode="&#x20d;" 
d="M573 1568q-51 -6 -83 -33.5t-50.5 -68.5t-25 -89.5t-6.5 -96.5v-780q0 -48 6.5 -96.5t24.5 -89t50.5 -68t83.5 -33.5v-246q-137 4 -229 53t-148 130.5t-80 189.5t-24 231v631q0 125 23.5 235t79.5 192.5t148.5 131.5t229.5 54v-247zM623 1815q137 -5 229.5 -54
t149 -131.5t80.5 -192t24 -235.5v-624q0 -123 -24 -232t-80 -191.5t-148.5 -133t-230.5 -54.5v246q52 6 84.5 33t50.5 67.5t24.5 89.5t6.5 97v780q0 48 -6.5 97t-25 89.5t-51 68t-83.5 33.5v247zM491 2321h255l130 -413h-172zM192 2321h257l130 -413h-174z" />
    <glyph glyph-name="uni020E" unicode="&#x20e;" 
d="M573 1568q-51 -6 -83 -33.5t-50.5 -68.5t-25 -89.5t-6.5 -96.5v-780q0 -48 6.5 -96.5t24.5 -89t50.5 -68t83.5 -33.5v-246q-137 4 -229 53t-148 130.5t-80 189.5t-24 231v631q0 125 23.5 235t79.5 192.5t148.5 131.5t229.5 54v-247zM623 1815q137 -5 229.5 -54
t149 -131.5t80.5 -192t24 -235.5v-624q0 -123 -24 -232t-80 -191.5t-148.5 -133t-230.5 -54.5v246q52 6 84.5 33t50.5 67.5t24.5 89.5t6.5 97v780q0 48 -6.5 97t-25 89.5t-51 68t-83.5 33.5v247zM342 1910q1 61 21.5 108.5t56 79.5t82 48.5t98.5 16.5t98.5 -16.5t82 -48.5
t56 -79.5t21.5 -108.5h-158q-2 26 -9 50t-19 43t-30 30t-42 11t-42 -11t-30 -30t-19 -43t-9 -50h-158z" />
    <glyph glyph-name="uni020F" unicode="&#x20f;" 
d="M573 1568q-51 -6 -83 -33.5t-50.5 -68.5t-25 -89.5t-6.5 -96.5v-780q0 -48 6.5 -96.5t24.5 -89t50.5 -68t83.5 -33.5v-246q-137 4 -229 53t-148 130.5t-80 189.5t-24 231v631q0 125 23.5 235t79.5 192.5t148.5 131.5t229.5 54v-247zM623 1815q137 -5 229.5 -54
t149 -131.5t80.5 -192t24 -235.5v-624q0 -123 -24 -232t-80 -191.5t-148.5 -133t-230.5 -54.5v246q52 6 84.5 33t50.5 67.5t24.5 89.5t6.5 97v780q0 48 -6.5 97t-25 89.5t-51 68t-83.5 33.5v247zM342 1910q1 61 21.5 108.5t56 79.5t82 48.5t98.5 16.5t98.5 -16.5t82 -48.5
t56 -79.5t21.5 -108.5h-158q-2 26 -9 50t-19 43t-30 30t-42 11t-42 -11t-30 -30t-19 -43t-9 -50h-158z" />
    <glyph glyph-name="uni0210" unicode="&#x210;" horiz-adv-x="1119" 
d="M482 1031h99q51 0 82 28.5t48 69.5t22.5 86t5.5 78q0 34 -5 78t-20.5 83.5t-44 66.5t-74.5 27h-113v234h44q126 0 224.5 -27.5t166 -84.5t102.5 -145t35 -210q0 -61 -5 -124t-26.5 -121.5t-66.5 -109t-126 -86.5l253 -874h-323l-207 831h-71v200zM116 0v1782h316v-1782
h-316zM405 2321h255l130 -413h-172zM106 2321h257l130 -413h-174z" />
    <glyph glyph-name="uni0211" unicode="&#x211;" horiz-adv-x="1119" 
d="M482 1031h99q51 0 82 28.5t48 69.5t22.5 86t5.5 78q0 34 -5 78t-20.5 83.5t-44 66.5t-74.5 27h-113v234h44q126 0 224.5 -27.5t166 -84.5t102.5 -145t35 -210q0 -61 -5 -124t-26.5 -121.5t-66.5 -109t-126 -86.5l253 -874h-323l-207 831h-71v200zM116 0v1782h316v-1782
h-316zM405 2321h255l130 -413h-172zM106 2321h257l130 -413h-174z" />
    <glyph glyph-name="uni0212" unicode="&#x212;" horiz-adv-x="1119" 
d="M482 1031h99q51 0 82 28.5t48 69.5t22.5 86t5.5 78q0 34 -5 78t-20.5 83.5t-44 66.5t-74.5 27h-113v234h44q126 0 224.5 -27.5t166 -84.5t102.5 -145t35 -210q0 -61 -5 -124t-26.5 -121.5t-66.5 -109t-126 -86.5l253 -874h-323l-207 831h-71v200zM116 0v1782h316v-1782
h-316zM256 1910q1 61 21.5 108.5t56 79.5t82 48.5t98.5 16.5t98.5 -16.5t82 -48.5t56 -79.5t21.5 -108.5h-158q-2 26 -9 50t-19 43t-30 30t-42 11t-42 -11t-30 -30t-19 -43t-9 -50h-158z" />
    <glyph glyph-name="uni0213" unicode="&#x213;" horiz-adv-x="1119" 
d="M482 1031h99q51 0 82 28.5t48 69.5t22.5 86t5.5 78q0 34 -5 78t-20.5 83.5t-44 66.5t-74.5 27h-113v234h44q126 0 224.5 -27.5t166 -84.5t102.5 -145t35 -210q0 -61 -5 -124t-26.5 -121.5t-66.5 -109t-126 -86.5l253 -874h-323l-207 831h-71v200zM116 0v1782h316v-1782
h-316zM256 1910q1 61 21.5 108.5t56 79.5t82 48.5t98.5 16.5t98.5 -16.5t82 -48.5t56 -79.5t21.5 -108.5h-158q-2 26 -9 50t-19 43t-30 30t-42 11t-42 -11t-30 -30t-19 -43t-9 -50h-158z" />
    <glyph glyph-name="uni0214" unicode="&#x214;" horiz-adv-x="1223" 
d="M639 212q58 3 90.5 29t48.5 75.5t19.5 124t3.5 174.5v1167h316v-1168q0 -84 -6.5 -164t-25.5 -151.5t-52 -131t-86 -103.5t-129 -69.5t-179 -27.5v245zM589 -33q-103 3 -179 28.5t-129.5 69.5t-87.5 104t-53.5 131t-26.5 150.5t-7 163.5v1168h317v-1167q0 -98 5.5 -171
t23 -122.5t50 -76t87.5 -32.5v-246zM507 2321h255l130 -413h-172zM208 2321h257l130 -413h-174z" />
    <glyph glyph-name="uni0215" unicode="&#x215;" horiz-adv-x="1223" 
d="M639 212q58 3 90.5 29t48.5 75.5t19.5 124t3.5 174.5v1167h316v-1168q0 -84 -6.5 -164t-25.5 -151.5t-52 -131t-86 -103.5t-129 -69.5t-179 -27.5v245zM589 -33q-103 3 -179 28.5t-129.5 69.5t-87.5 104t-53.5 131t-26.5 150.5t-7 163.5v1168h317v-1167q0 -98 5.5 -171
t23 -122.5t50 -76t87.5 -32.5v-246zM507 2321h255l130 -413h-172zM208 2321h257l130 -413h-174z" />
    <glyph glyph-name="uni0216" unicode="&#x216;" horiz-adv-x="1223" 
d="M639 212q58 3 90.5 29t48.5 75.5t19.5 124t3.5 174.5v1167h316v-1168q0 -84 -6.5 -164t-25.5 -151.5t-52 -131t-86 -103.5t-129 -69.5t-179 -27.5v245zM589 -33q-103 3 -179 28.5t-129.5 69.5t-87.5 104t-53.5 131t-26.5 150.5t-7 163.5v1168h317v-1167q0 -98 5.5 -171
t23 -122.5t50 -76t87.5 -32.5v-246zM358 1910q1 61 21.5 108.5t56 79.5t82 48.5t98.5 16.5t98.5 -16.5t82 -48.5t56 -79.5t21.5 -108.5h-158q-2 26 -9 50t-19 43t-30 30t-42 11t-42 -11t-30 -30t-19 -43t-9 -50h-158z" />
    <glyph glyph-name="uni0217" unicode="&#x217;" horiz-adv-x="1223" 
d="M639 212q58 3 90.5 29t48.5 75.5t19.5 124t3.5 174.5v1167h316v-1168q0 -84 -6.5 -164t-25.5 -151.5t-52 -131t-86 -103.5t-129 -69.5t-179 -27.5v245zM589 -33q-103 3 -179 28.5t-129.5 69.5t-87.5 104t-53.5 131t-26.5 150.5t-7 163.5v1168h317v-1167q0 -98 5.5 -171
t23 -122.5t50 -76t87.5 -32.5v-246zM358 1910q1 61 21.5 108.5t56 79.5t82 48.5t98.5 16.5t98.5 -16.5t82 -48.5t56 -79.5t21.5 -108.5h-158q-2 26 -9 50t-19 43t-30 30t-42 11t-42 -11t-30 -30t-19 -43t-9 -50h-158z" />
    <glyph glyph-name="dotlessj" unicode="&#x237;" horiz-adv-x="612" 
d="M3 198q55 0 89.5 7.5t54 32t27 70t7.5 121.5v1353h316v-1355q0 -114 -14 -199t-57 -141.5t-121 -84.5t-206 -28h-96v224z" />
    <glyph glyph-name="circumflex" unicode="&#x2c6;" horiz-adv-x="805" 
d="M554 1370l-127 208v204h131q70 -110 125 -198q24 -38 47 -74.5t41.5 -66.5t31.5 -49.5t16 -23.5h-265zM-15 1370q3 4 15.5 23.5t31.5 49.5t42 66.5t47 74.5q55 88 125 198h131v-204l-127 -208h-265z" />
    <glyph glyph-name="caron" unicode="&#x2c7;" horiz-adv-x="805" 
d="M250 1782l127 -208v-204h-131q-70 110 -125 198q-24 37 -47 74t-42 66.5t-31.5 49.5t-15.5 24h265zM819 1782q-3 -4 -16 -24t-31.5 -49.5t-41.5 -66.5t-47 -74q-55 -88 -125 -198h-131v204l127 208h265z" />
    <glyph glyph-name="breve" unicode="&#x2d8;" horiz-adv-x="730" 
d="M253 1663q1 -26 8 -50.5t19 -43t30 -30t42 -11.5t42.5 11.5t30.5 30t18.5 43t8.5 50.5h159q-1 -62 -22 -109t-56 -79t-82 -48.5t-99 -16.5t-98.5 16.5t-81.5 48.5t-56 79t-22 109h159z" />
    <glyph glyph-name="dotaccent" unicode="&#x2d9;" horiz-adv-x="541" 
d="M139 1759h292v-287h-292v287z" />
    <glyph glyph-name="ring" unicode="&#x2da;" horiz-adv-x="730" 
d="M333 1405q-49 4 -89.5 22.5t-69 49t-44.5 71.5t-16 90t16 90t44.5 72t69 49.5t89.5 22.5v-113q-19 -6 -32 -19t-21 -30t-11.5 -35.5t-3.5 -35.5t3.5 -35.5t11.5 -35.5t21 -30.5t32 -19.5v-113zM383 1517q19 5 32.5 18t21.5 30.5t11.5 36.5t3.5 36q0 16 -3.5 35.5
t-12 36.5t-21.5 30.5t-32 19.5v112q49 -4 90 -22.5t70.5 -49t45.5 -72t16 -90.5q0 -50 -16 -91t-45 -71.5t-70 -49t-91 -21.5v112z" />
    <glyph glyph-name="ogonek" unicode="&#x2db;" horiz-adv-x="553" 
d="M386 -95q-23 -48 -42 -96t-19 -102q0 -41 17.5 -63t45.5 -32t62 -11.5t67 -1.5l-16 -140q-10 0 -19.5 -0.5t-19.5 -0.5q-60 0 -119.5 6.5t-107 28t-77.5 62t-30 108.5q0 32 9 64.5t23.5 63.5t33.5 60t40 54h152z" />
    <glyph glyph-name="tilde" unicode="&#x2dc;" horiz-adv-x="867" 
d="M117 1418q0 48 6 97t25.5 88t56 64t97.5 25q42 0 82 -9.5t75.5 -21.5t65.5 -21.5t52 -9.5q27 0 34 14t8 37h147q0 -33 -4 -79.5t-20.5 -90t-49 -74t-89.5 -30.5q-35 0 -70.5 11.5t-71 25.5t-70.5 25.5t-67 11.5q-18 0 -28 -5t-15 -13.5t-6.5 -20t-2.5 -24.5h-155z" />
    <glyph glyph-name="hungarumlaut" unicode="&#x2dd;" horiz-adv-x="911" 
d="M240 1819h256l-213 -413h-173zM537 1819h257l-213 -413h-174z" />
    <glyph glyph-name="dotaccentcmb" unicode="&#x307;" horiz-adv-x="410" 
d="M113 1559h184v-179h-184v179z" />
    <glyph glyph-name="uni030F" unicode="&#x30f;" horiz-adv-x="913" 
d="M402 1819h255l130 -413h-172zM103 1819h257l130 -413h-174z" />
    <glyph glyph-name="uni0311" unicode="&#x311;" horiz-adv-x="730" 
d="M94 1410q1 61 21.5 108.5t56 79.5t82 48.5t98.5 16.5t98.5 -16.5t82 -48.5t56 -79.5t21.5 -108.5h-158q-2 26 -9 50t-19 43t-30 30t-42 11t-42 -11t-30 -30t-19 -43t-9 -50h-158z" />
    <glyph glyph-name="uni0326" unicode="&#x326;" horiz-adv-x="1122" 
d="M441 -472q28 3 45 9t26 18t12 30.5t3 47.5h-114v287h292q0 -36 0.5 -70.5t0.5 -66.5q0 -91 -6.5 -164t-30 -124t-69 -79t-122.5 -29zM482 1031h99q51 0 82 28.5t48 69.5t22.5 86t5.5 78q0 34 -5 78t-20.5 83.5t-44 66.5t-74.5 27h-113v234h44q126 0 224.5 -27.5
t166 -84.5t102.5 -145t35 -210q0 -61 -5 -124t-26.5 -121.5t-66.5 -109t-126 -86.5l253 -874h-323l-207 831h-71v200zM116 0v1782h316v-1782h-316z" />
    <glyph glyph-name="endash" unicode="&#x2013;" horiz-adv-x="587" 
d="M29 651h530v-199h-530v199z" />
    <glyph glyph-name="emdash" unicode="&#x2014;" horiz-adv-x="909" 
d="M29 651h852v-199h-852v199z" />
    <glyph glyph-name="quoteleft" unicode="&#x2018;" horiz-adv-x="527" 
d="M124 1288q0 42 -1.5 87t-1.5 90q0 67 6.5 129.5t28.5 111t63 78t110 30.5l71 -143q-25 -3 -48.5 -12t-42 -23.5t-29.5 -34t-12 -43.5h128v-270h-272z" />
    <glyph glyph-name="quoteright" unicode="&#x2019;" horiz-adv-x="524" 
d="M117 1426q25 2 49 11t42 23t29.5 34t12.5 44h-128v271h271q0 -42 1.5 -87t1.5 -91q0 -66 -6.5 -128.5t-28.5 -111.5t-63 -78.5t-110 -30.5z" />
    <glyph glyph-name="quotesinglbase" unicode="&#x201a;" horiz-adv-x="423" 
d="M72 77h273q-1 -8 -6 -38.5t-12 -72t-14.5 -88.5t-14.5 -88.5t-12.5 -72t-6.5 -38.5h-142z" />
    <glyph glyph-name="quotedblleft" unicode="&#x201c;" horiz-adv-x="903" 
d="M127 1288q0 43 -1.5 88.5t-1.5 91.5q0 66 6.5 128.5t28.5 110.5t63 77t110 30l71 -143q-26 -3 -49 -11.5t-41 -23t-29.5 -34.5t-12.5 -44h128v-270h-272zM491 1288q0 42 -1.5 87t-1.5 90q0 67 6.5 129.5t28.5 111t63.5 78t110.5 30.5l70 -143q-26 -3 -49.5 -12
t-41.5 -23.5t-29 -34t-12 -43.5h128v-270h-272z" />
    <glyph glyph-name="quotedblright" unicode="&#x201d;" horiz-adv-x="900" 
d="M120 1426q25 2 48.5 11t42 23t30 34t11.5 44h-128v271h272q0 -43 1.5 -88.5t1.5 -92.5q0 -66 -6.5 -128t-28.5 -110t-63 -77.5t-110 -30.5zM484 1426q25 2 49 11t42 23t29.5 34t12.5 44h-128v271h272q0 -42 1.5 -87.5t1.5 -90.5q0 -67 -6.5 -129.5t-28.5 -111t-63.5 -78
t-110.5 -30.5z" />
    <glyph glyph-name="quotedblbase" unicode="&#x201e;" horiz-adv-x="754" 
d="M74 78h274q-2 -8 -7 -38.5t-12 -72t-14.5 -88.5t-14.5 -88.5t-12.5 -72t-6.5 -38.5h-141zM397 78h274q-1 -8 -6 -38.5t-12 -72t-15 -88.5t-15 -88.5t-12.5 -72t-6.5 -38.5h-140z" />
    <glyph glyph-name="bullet" unicode="&#x2022;" horiz-adv-x="895" 
d="M407 431q-50 8 -95.5 30.5t-80.5 59t-55.5 87t-20.5 113.5q0 79 25 137.5t65 97.5t90.5 58.5t102.5 19.5q57 0 111.5 -20t97.5 -58t69 -93.5t26 -125.5q0 -78 -25 -136t-65.5 -96.5t-91.5 -58t-104 -19.5q-12 0 -24.5 1t-24.5 3z" />
    <glyph glyph-name="perthousand" unicode="&#x2030;" horiz-adv-x="2647" 
d="M1132 1810h167l-572 -1810h-166zM1459 981q90 -5 152 -39t100.5 -93.5t55.5 -141.5t17 -182v-60q0 -98 -17 -182t-55 -146t-100 -99.5t-153 -42.5l-1 186q30 7 48 32t27.5 62.5t12.5 86t3 104.5v55q0 55 -2.5 102.5t-11.5 83t-27 58t-49 29.5v187zM1408 -5
q-91 5 -153 42.5t-100 99.5t-54.5 146t-16.5 182v60q0 99 16.5 181t55 141.5t100.5 94t152 39.5l1 -186q-31 -6 -49.5 -29t-28 -58.5t-12.5 -83t-3 -102.5v-56q0 -56 3.5 -104.5t13 -86t27.5 -62.5t48 -32v-186zM459 1783q90 -5 152 -39t100.5 -93.5t55.5 -141.5t17 -182
v-60q0 -98 -17 -182t-55 -146t-100 -99.5t-153 -42.5l-1 186q30 7 48 32t27.5 62.5t12.5 86t3 104.5v55q0 55 -2.5 102.5t-11.5 83t-27 58t-49 29.5v187zM408 797q-91 5 -153 42.5t-100 99.5t-54.5 146t-16.5 182v60q0 99 16.5 181t55 141.5t100.5 94t152 39.5l1 -186
q-31 -6 -49.5 -29t-28 -58.5t-12.5 -83t-3 -102.5v-56q0 -56 3.5 -104.5t13 -86t27.5 -62.5t48 -32v-186zM2240 981q90 -5 152 -39t100.5 -93.5t55.5 -141.5t17 -182v-60q0 -98 -17 -182t-55 -146t-100 -99.5t-153 -42.5l-1 186q30 7 48 32t27.5 62.5t12.5 86t3 104.5v55
q0 55 -2.5 102.5t-11.5 83t-27 58t-49 29.5v187zM2189 -5q-91 5 -153 42.5t-100 99.5t-54.5 146t-16.5 182v60q0 99 16.5 181t55 141.5t100.5 94t152 39.5l1 -186q-31 -6 -49.5 -29t-28 -58.5t-12.5 -83t-3 -102.5v-56q0 -56 3.5 -104.5t13 -86t27.5 -62.5t48 -32v-186z" />
    <glyph glyph-name="guilsinglleft" unicode="&#x2039;" horiz-adv-x="605" 
d="M79 576v128l434 499v-294l-260 -268l260 -270v-294z" />
    <glyph glyph-name="guilsinglright" unicode="&#x203a;" horiz-adv-x="591" 
d="M79 371l260 270l-260 268v294l434 -499v-128l-434 -499v294z" />
    <glyph glyph-name="fraction" unicode="&#x2044;" horiz-adv-x="625" 
d="M339 1783h187l-326 -1783h-184z" />
    <glyph glyph-name="foursuperior" unicode="&#x2074;" horiz-adv-x="808" 
d="M602 1613v-1029h-203v568l200 461h3zM275 993h74v-146h-267v137l302 629h161zM652 993h81v-146h-81v146z" />
    <glyph glyph-name="Euro" unicode="&#x20ac;" horiz-adv-x="1052" 
d="M563 1618q115 -6 191.5 -51.5t122 -118.5t65 -168.5t20.5 -201.5v-20h-251v28q0 43 -5.5 93t-22 94t-45.5 76.5t-75 40.5v228zM563 206q52 6 83 42.5t47 87.5t20.5 108t4.5 103v31h248v-25q0 -72 -7 -142t-24.5 -133.5t-47 -117.5t-74 -94.5t-106.5 -65t-144 -27.5v233z
M512 -26q-120 4 -198.5 47.5t-125.5 115t-67.5 166t-24.5 201.5v50h-81v173h80v128h-80v173h83v53q4 106 24.5 202t67 169.5t124.5 118t198 48.5l1 -228q-58 -5 -90.5 -34t-48.5 -71.5t-19.5 -94.5t-3.5 -103v-60h161v-173h-161v-128h161v-173h-159v-55q2 -48 8 -96.5
t22.5 -90t47 -70t81.5 -35.5v-233z" />
    <glyph glyph-name="trademark" unicode="&#x2122;" horiz-adv-x="2048" 
d="M305 1364h-163v137h482v-137h-164v-678h-155v678zM731 1501h225l114 -472l119 472h222v-815h-145v593l-151 -593h-90l-151 590v-590h-143v815z" />
    <glyph glyph-name="commaaccent" unicode="&#xf6c3;" horiz-adv-x="505" 
d="M128 -472q28 3 45 9t26 18t12 30.5t3 47.5h-114v287h292q0 -36 0.5 -70.5t0.5 -66.5q0 -91 -6.5 -164t-30 -124t-69 -79t-122.5 -29z" />
    <glyph glyph-name="nonmarkingreturn" horiz-adv-x="75" 
 />
    <glyph glyph-name="NULL" horiz-adv-x="336" 
 />
    <glyph glyph-name="cdieresis" horiz-adv-x="0" 
 />
    <glyph glyph-name="foundryicon" horiz-adv-x="1562" 
d="M486 819l-459 349h572l178 542l188 -542h572l-461 -349l170 -542l-469 327l-459 -327z" />
    <glyph glyph-name="nonbreakingspace" horiz-adv-x="336" 
 />
    </font>
</defs>
</svg>
