<?xml version="1.0" standalone="no"?>
<!DOCTYPE svg PUBLIC "-//W3C//DTD SVG 20010904//EN"
 "http://www.w3.org/TR/2001/REC-SVG-20010904/DTD/svg10.dtd">
<svg version="1.0" xmlns="http://www.w3.org/2000/svg"
 width="243.000000pt" height="243.000000pt" viewBox="0 0 243.000000 243.000000"
 preserveAspectRatio="xMidYMid meet">
<metadata>
Created by potrace 1.11, written by Peter Selinger 2001-2013
</metadata>
<g transform="translate(0.000000,243.000000) scale(0.100000,-0.100000)"
fill="#000000" stroke="none">
<path d="M600 1814 c-74 -36 -196 -95 -270 -131 -74 -36 -138 -71 -142 -77 -4
-6 -8 -7 -8 -3 0 5 -17 0 -37 -11 -21 -11 -50 -25 -65 -32 -15 -7 -25 -17 -22
-22 3 -5 2 -8 -3 -7 -4 1 -18 1 -31 0 -21 -1 -23 -5 -20 -48 2 -27 8 -51 13
-55 6 -5 6 -8 -2 -8 -7 0 -10 -10 -8 -22 4 -22 17 -335 18 -430 0 -27 3 -48 6
-48 3 0 4 -34 3 -76 -3 -56 0 -79 10 -85 9 -6 9 -9 1 -9 -6 0 -11 -9 -10 -20
1 -11 5 -20 10 -20 6 0 6 -5 0 -12 -5 -7 -8 -19 -7 -25 1 -7 2 -18 3 -23 1 -6
21 -8 54 -5 28 3 75 8 102 11 28 3 66 7 85 10 19 2 62 6 95 9 33 3 78 8 100
10 58 7 177 18 198 19 9 0 17 3 17 6 0 8 111 2 160 -10 25 -6 54 -12 65 -15
17 -4 127 -30 465 -111 36 -9 76 -16 90 -16 14 0 68 23 120 52 52 30 120 67
150 83 65 34 155 83 225 122 28 15 77 42 110 60 84 44 192 103 245 133 25 14
54 30 65 36 11 6 25 15 32 19 8 5 -3 32 -39 90 -28 45 -56 85 -62 89 -6 4 -8
8 -4 8 3 0 -41 77 -98 171 -57 95 -104 175 -104 180 0 4 -3 9 -8 11 -4 2 -34
48 -66 103 -33 55 -62 102 -65 105 -3 3 -13 18 -21 33 -12 23 -18 27 -40 22
-14 -4 -34 -9 -45 -11 -41 -8 -62 -13 -128 -28 -37 -9 -82 -18 -100 -21 -17
-3 -81 -17 -142 -30 -126 -27 -173 -37 -180 -36 -2 0 -19 -5 -37 -10 -18 -5
-51 -12 -73 -15 -22 -4 -47 -10 -55 -14 -9 -5 -37 -11 -62 -14 -25 -3 -50 -7
-56 -8 -5 -2 -67 35 -137 82 -71 47 -130 83 -131 80 -2 -3 -9 3 -16 12 -12 16
-24 12 -148 -48z m-114 -139 c-1 -8 -5 -17 -8 -21 -5 -4 -4 16 1 34 3 9 9 -1
7 -13z m-116 -85 c0 -5 -2 -10 -4 -10 -3 0 -8 5 -11 10 -3 6 -1 10 4 10 6 0
11 -4 11 -10z m-282 -165 c-3 -3 -9 2 -12 12 -6 14 -5 15 5 6 7 -7 10 -15 7
-18z m77 6 c3 -5 2 -12 -3 -15 -5 -3 -9 1 -9 9 0 17 3 19 12 6z m-35 -161 c0
-5 -5 -10 -11 -10 -5 0 -7 5 -4 10 3 6 8 10 11 10 2 0 4 -4 4 -10z m165 -200
c-3 -5 -12 -10 -18 -10 -7 0 -6 4 3 10 19 12 23 12 15 0z m1875 0 c0 -5 -2
-10 -4 -10 -3 0 -8 5 -11 10 -3 6 -1 10 4 10 6 0 11 -4 11 -10z m-1996 -38 c2
-4 -4 -8 -14 -8 -10 0 -16 4 -14 8 3 4 9 8 14 8 5 0 11 -4 14 -8z m116 -36 c0
-3 -4 -8 -10 -11 -5 -3 -10 -1 -10 4 0 6 5 11 10 11 6 0 10 -2 10 -4z m-206
-52 c3 -8 2 -12 -4 -9 -6 3 -10 10 -10 16 0 14 7 11 14 -7z m171 7 c-9 -8 -36
-10 -30 -2 2 4 11 8 20 8 8 0 13 -3 10 -6z m-45 -41 c0 -5 -5 -10 -11 -10 -5
0 -7 5 -4 10 3 6 8 10 11 10 2 0 4 -4 4 -10z m1477 -5 c0 -8 -4 -12 -9 -9 -5
3 -6 10 -3 15 9 13 12 11 12 -6z m-1562 -83 c-3 -3 -11 0 -18 7 -9 10 -8 11 6
5 10 -3 15 -9 12 -12z m90 8 c3 -6 -1 -7 -9 -4 -18 7 -21 14 -7 14 6 0 13 -4
16 -10z m-85 -74 c0 -3 -4 -8 -10 -11 -5 -3 -10 -1 -10 4 0 6 5 11 10 11 6 0
10 -2 10 -4z"/>
</g>
</svg>
